<?xml version="1.0" encoding="utf-8"?>
<!-- Generator: Adobe Illustrator 19.2.1, SVG Export Plug-In . SVG Version: 6.00 Build 0)  -->
<svg version="1.1" id="Layer_1" xmlns="http://www.w3.org/2000/svg" xmlns:xlink="http://www.w3.org/1999/xlink" x="0px" y="0px"
	 viewBox="0 0 179 53.5" style="enable-background:new 0 0 179 53.5;" xml:space="preserve">
<style type="text/css">
	.st0{fill:#231F20;}
	.st1{enable-background:new    ;}
</style>
<title>metalXchange Logo</title>
<path class="st0" d="M25.9,33.6c-0.7,0.4-1.3,0.8-1.7,1.4c-0.2,0.2-0.3,0.4-0.6,0.8c-0.2,0.3-0.5,0.8-0.8,1.3
	c-0.2-0.4-0.4-0.7-0.6-1c0,0-0.1,0.1-0.1,0.1c0,0,0,0.1-0.1,0.2c-0.3-0.5-0.6-1-0.8-1.3c-0.2-0.3-0.4-0.6-0.6-0.8
	c-0.2-0.1-0.3-0.3-0.5-0.4c-0.2-0.1-0.4-0.2-0.5-0.3c-0.4,0.2-0.7,0.4-1,0.7c-0.3,0.2-0.5,0.5-0.8,0.8c-0.2,0.2-0.3,0.4-0.6,0.8
	c-0.2,0.3-0.5,0.8-0.8,1.3c-0.1-0.2-0.2-0.4-0.3-0.6c-0.1-0.2-0.2-0.3-0.3-0.4c0,0-0.1,0.1-0.1,0.1c0,0,0,0.1-0.1,0.1
	c-0.3-0.5-0.6-1-0.8-1.4c-0.2-0.4-0.4-0.6-0.5-0.8h0c-0.2-0.1-0.3-0.3-0.5-0.4c-0.2-0.1-0.3-0.2-0.5-0.3c-0.4,0.2-0.7,0.4-1,0.7
	c-0.3,0.2-0.5,0.5-0.8,0.8c-0.2,0.2-0.3,0.4-0.6,0.8c-0.2,0.3-0.5,0.8-0.8,1.3c-0.1-0.2-0.2-0.4-0.3-0.6c-0.1-0.2-0.2-0.3-0.3-0.5
	c0,0-0.1,0.1-0.1,0.1c0,0,0,0.1-0.1,0.2c-0.3-0.5-0.5-0.9-0.8-1.3c-0.2-0.3-0.4-0.6-0.6-0.8c-0.2-0.2-0.4-0.3-0.6-0.4
	c-0.2-0.1-0.5-0.3-0.7-0.4c0,0,0.1,0,0.1-0.1c0,0,0.1,0,0.1-0.1c-0.3-0.2-0.7-0.4-1-0.6c0.8-0.4,1.2-0.8,1.5-1.2
	c0.2-0.4,0.2-1,0.2-1.7V26c0-0.2,0-0.5-0.1-0.7c-0.1-0.2-0.2-0.5-0.4-0.7c-0.1-0.1-0.1-0.1-0.2-0.2c-0.1,0-0.1-0.1-0.2-0.1l0.1,0
	c0,0,0,0,0.1,0c-0.3-0.3-0.6-0.5-0.9-0.7c0.9-0.5,1.6-0.9,2-1.4c0.2-0.2,0.4-0.5,0.6-0.9c0.2-0.4,0.4-0.8,0.6-1.4
	c0.1,0.2,0.2,0.4,0.3,0.6c0.1,0.2,0.2,0.4,0.3,0.5c0.1-0.2,0.1-0.3,0.2-0.4c0.4,0.9,0.9,1.6,1.3,2.2c0.3,0.3,0.7,0.4,1.1,0.4
	c1,0,2-1.1,3.1-3.2c0.1,0.2,0.2,0.4,0.3,0.6c0.1,0.2,0.2,0.3,0.3,0.5l0.2-0.3c0.4,0.9,0.9,1.6,1.3,2.1c0.4,0.3,0.7,0.4,1.1,0.4
	c1,0,2-1.1,3.1-3.2c0.1,0.2,0.2,0.4,0.3,0.6c0.1,0.2,0.2,0.4,0.3,0.5c0-0.1,0.1-0.1,0.1-0.2c0-0.1,0.1-0.1,0.1-0.2
	c0.3,0.5,0.5,0.9,0.7,1.3c0.2,0.3,0.3,0.6,0.4,0.8c0.3,0.3,0.9,0.6,1.5,0.9l-0.3,0.2c0.2,0.1,0.3,0.2,0.5,0.3
	c0.2,0.1,0.4,0.2,0.6,0.3c-1.1,0.5-1.7,1.3-1.7,2.4v3.8c0,0.8,0.1,1.4,0.2,1.7c0,0.1,0,0.1,0.1,0.2c0.1,0.1,0.2,0.1,0.4,0.2v0.3
	c0.2,0.2,0.4,0.4,0.7,0.5V33.6z M23.9,31.5c-0.1-0.3-0.2-0.9-0.2-1.8V26c0-1.2,0.5-2,1.5-2.4c-0.9-0.4-1.5-0.9-1.9-1.3
	c-0.2-0.2-0.5-0.9-1.1-2c-1,2.1-2.1,3.1-3.1,3.1c-1,0-2.1-1-3.1-3.1c-1,2.1-2.1,3.1-3.1,3.1c-1,0-2.1-1-3.1-3.1
	c-0.2,0.4-0.4,0.8-0.6,1.2C9,21.7,8.8,22,8.6,22.2c-0.4,0.4-1,0.9-1.8,1.3c0.4,0.2,0.8,0.5,1.1,1C8.1,25,8.2,25.5,8.2,26v3.8
	c0,0.8-0.1,1.4-0.2,1.8c-0.2,0.5-0.6,0.9-1.3,1.2c0.7,0.4,1.3,0.9,1.8,1.4c0.2,0.2,0.3,0.4,0.5,0.7c0.2,0.3,0.4,0.7,0.7,1.2
	c0.5-1,1-1.6,1.2-1.9c0.5-0.6,1.1-1.1,1.8-1.5c-0.7-0.3-1.1-0.7-1.3-1.2c-0.1-0.3-0.2-0.9-0.2-1.8V26c0-0.5,0.1-1,0.4-1.5
	c0.3-0.5,0.7-0.7,1.2-0.7s0.9,0.2,1.2,0.7c0.2,0.4,0.4,0.9,0.4,1.5v3.8c0,0.9-0.1,1.4-0.2,1.8c-0.2,0.5-0.6,0.9-1.3,1.2
	c0.7,0.4,1.3,0.9,1.8,1.5c0.1,0.2,0.3,0.4,0.5,0.7c0.2,0.3,0.4,0.7,0.7,1.2c0.5-1,1-1.6,1.2-1.9c0.5-0.6,1.1-1.1,1.8-1.5
	c-0.7-0.3-1.1-0.7-1.3-1.2c-0.1-0.3-0.2-0.9-0.2-1.8V26c0-0.5,0.1-1,0.4-1.5c0.3-0.5,0.7-0.7,1.2-0.7c0.5,0,0.9,0.2,1.2,0.7
	c0.2,0.4,0.4,0.9,0.4,1.5v3.8c0,0.9-0.1,1.4-0.2,1.8c-0.2,0.5-0.6,0.9-1.3,1.2c0.7,0.4,1.3,0.9,1.8,1.5c0.3,0.3,0.7,1,1.2,1.9
	c0.5-1,1-1.6,1.2-1.9c0.5-0.6,1.1-1.1,1.8-1.5C24.5,32.4,24,32,23.9,31.5z M12.6,32.5c0.1,0,0.1,0.1,0.2,0.1
	c0.6-0.3,1.1-0.7,1.2-1.1c0.1-0.3,0.2-0.9,0.2-1.7V26c0-0.5-0.1-0.9-0.3-1.2c-0.1-0.1-0.2-0.1-0.4-0.1c-0.5,0-0.8,0.2-1.1,0.7
	c-0.2,0.4-0.3,0.9-0.3,1.4v3.8c0,0.8,0.1,1.4,0.2,1.7c0,0,0,0.1,0,0.1c0,0,0,0,0,0C12.4,32.4,12.5,32.4,12.6,32.5z M12.8,32.9
	L12.8,32.9c0.2,0.2,0.4,0.3,0.7,0.5C13.3,33.2,13.1,33,12.8,32.9z M18.8,32.5c0.1,0,0.1,0.1,0.2,0.1c0.6-0.3,1.1-0.7,1.2-1.1
	c0.1-0.3,0.2-0.9,0.2-1.7V26c0-0.5-0.1-0.9-0.3-1.2c-0.1-0.1-0.2-0.1-0.4-0.1c-0.5,0-0.8,0.2-1.1,0.7c-0.2,0.4-0.3,0.9-0.3,1.4v3.8
	c0,0.8,0.1,1.4,0.2,1.7c0,0,0,0.1,0,0.1c0,0,0,0,0,0C18.6,32.4,18.7,32.4,18.8,32.5z M19,32.9L19,32.9c0.2,0.2,0.4,0.3,0.7,0.5
	C19.5,33.2,19.3,33,19,32.9z"/>
<path class="st0" d="M37.1,33.6c-0.9,0.1-1.8,0.5-2.8,1.1c-0.5,0.3-0.9,0.7-1.3,1.1c-0.4,0.4-0.7,0.8-1,1.3
	c-0.1-0.2-0.2-0.3-0.3-0.5c-0.1-0.2-0.2-0.3-0.4-0.5l-0.1,0.2c-0.2-0.3-0.4-0.6-0.6-0.9c-0.2-0.2-0.3-0.3-0.5-0.4
	c-0.2-0.1-0.4-0.2-0.6-0.4c-0.9-0.5-2.1-1-3.5-1.2c0.1-0.1,0.2-0.1,0.3-0.2s0.2-0.1,0.3-0.2c-0.2-0.1-0.5-0.1-0.7-0.2
	c-0.2-0.1-0.5-0.1-0.7-0.2c0.6-0.3,1-0.6,1.4-1.1c0.4-0.5,0.6-0.9,0.6-1.4v-3.6c0-0.8-0.2-1.5-0.6-2.1c-0.1,0-0.1-0.1-0.2-0.1
	c-0.1,0-0.1-0.1-0.2-0.1l0-0.1c-0.2-0.2-0.5-0.4-0.8-0.6l0.1-0.2c1.5,0,2.9-0.3,4.1-0.8c1.4-0.6,2.5-1.5,3.3-2.7
	c0.1,0.2,0.2,0.4,0.3,0.6c0.1,0.2,0.2,0.3,0.3,0.5c0,0,0.1-0.1,0.1-0.1c0-0.1,0.1-0.1,0.1-0.1c0.2,0.4,0.4,0.8,0.6,1.2
	c0.2,0.3,0.4,0.6,0.6,0.8c0.2,0.2,0.4,0.3,0.7,0.4c0.2,0.1,0.5,0.3,0.8,0.4c0,0-0.1,0.1-0.1,0.1c0,0-0.1,0.1-0.1,0.1
	c0.3,0.2,0.7,0.4,1,0.5c-0.3,0.3-0.5,0.6-0.7,0.9c-0.2,0.4-0.4,0.8-0.5,1.2c-0.1,0.5-0.3,1-0.4,1.3c-0.1,0.4-0.3,0.7-0.5,0.9
	c-0.7,0.8-1.9,1.4-3.5,1.8l0,0.4v0.1c0,0.5,0.1,0.9,0.3,1.2c0.2,0.1,0.5,0.2,0.8,0.3c0.6,0.2,1.6,0.3,3,0.3h0.6v0.3
	c-0.3,0-0.5,0.1-0.8,0.1c-0.3,0.1-0.5,0.1-0.8,0.3c0.2,0,0.5,0.1,0.8,0.1c0.3,0,0.6,0,0.9,0h0.6V33.6z M32.8,32.5
	c-1.3-0.4-2-1.2-2-2.5l0-0.5c1.7-0.4,2.9-1,3.6-1.8c0.3-0.4,0.6-1.1,0.9-2.2c0.3-1,0.6-1.7,1.1-2.1c-0.8-0.4-1.4-0.8-1.9-1.4
	c-0.2-0.2-0.4-0.5-0.6-0.8c-0.2-0.3-0.4-0.7-0.7-1.2c-0.8,1.1-1.9,2-3.3,2.6c-1.2,0.5-2.6,0.8-4.1,0.8c1.2,0.6,1.7,1.7,1.7,3.2v3.6
	c0,0.5-0.2,1-0.5,1.5c-0.3,0.5-0.7,0.8-1.2,1C27,33,28,33.3,29,33.9c1.1,0.6,1.9,1.4,2.4,2.2c0.5-0.9,1.2-1.6,2.2-2.3
	c1-0.7,1.9-1,2.8-1.1C34.6,32.8,33.4,32.7,32.8,32.5z M32.5,28.1c-0.5,0.4-1,0.7-1.7,0.8v-5.6c0.5,0,1.1,0.4,1.6,1.2
	c0.6,0.8,0.9,1.4,0.9,2C33.3,27.1,33,27.6,32.5,28.1z M32.3,24.5C32.3,24.5,32.3,24.5,32.3,24.5c-0.1-0.1-0.1-0.1-0.1-0.2
	c-0.2-0.1-0.4-0.2-0.5-0.2v4.3c0.3-0.1,0.5-0.3,0.7-0.5c0.5-0.4,0.7-0.9,0.7-1.5C33.2,25.9,32.9,25.3,32.3,24.5z M32.2,29.3
	c-0.1,0-0.1,0-0.2,0.1C32,29.3,32.1,29.3,32.2,29.3c0.1,0,0.2,0,0.2-0.1C32.3,29.2,32.2,29.2,32.2,29.3z"/>
<path class="st0" d="M44.4,26.8v-0.7v-0.1h-0.7v-0.7c0-0.1,0-0.2,0-0.3c0-0.1,0-0.1,0-0.2c0-0.3,0-0.5-0.1-0.7
	c-0.2-0.1-0.5-0.1-0.7-0.1v6.3c0,1,0.2,1.8,0.6,2.4c0.1,0,0.1,0.1,0.2,0.1c0.1,0,0.1,0.1,0.2,0.1l-0.2,0.1c0.2,0.3,0.5,0.5,0.9,0.7
	c-1,0.6-1.7,1-2.1,1.4h0c-0.2,0.2-0.5,0.5-0.7,0.8c-0.2,0.3-0.5,0.7-0.8,1.2c-0.1-0.2-0.2-0.4-0.3-0.5c-0.1-0.2-0.2-0.3-0.3-0.5
	c0,0,0,0.1-0.1,0.1c0,0,0,0.1-0.1,0.1c-0.2-0.3-0.4-0.6-0.6-0.9c-0.2-0.3-0.4-0.5-0.5-0.7c-0.2-0.2-0.5-0.3-0.7-0.5
	c-0.3-0.2-0.6-0.4-1-0.6c0,0,0.1-0.1,0.1-0.1c0.1,0,0.1,0,0.1-0.1c-0.2-0.1-0.3-0.2-0.5-0.3c-0.2-0.1-0.4-0.2-0.5-0.3
	c0.8-0.4,1.3-0.9,1.5-1.5c0.2-0.5,0.2-1.1,0.2-1.9v-5.6h-1.2v-0.7h-0.7v-1.6h1.9v-2.8c0-0.3-0.1-0.6-0.3-0.8
	c-0.1-0.1-0.3-0.2-0.4-0.3c-0.1-0.1-0.2-0.2-0.3-0.3l0.1-0.1c-0.2-0.1-0.3-0.2-0.4-0.3c-0.1-0.1-0.3-0.2-0.4-0.3l0.2-0.2
	c0.5-0.1,1.1-0.2,2-0.4h0c0.3-0.1,0.6-0.3,1.1-0.6c0.4-0.3,0.9-0.6,1.5-1.1c1-0.7,2-1.2,3.1-1.3l0,0.7c-0.4,0.1-0.8,0.4-1.1,0.7
	c0.6-0.3,1.3-0.5,1.9-0.6l0,0.7c-1.6,0.5-2.4,2.2-2.4,5v2.1c0.3-0.1,0.5-0.2,0.6-0.3c0.1-0.1,0.2-0.7,0.2-1.7h0.9v0.7h0.7v6.3H44.4z
	 M44.4,25.9v-6h-0.6c0,0.9-0.1,1.5-0.2,1.6c-0.2,0.2-0.7,0.4-1.6,0.4v-3c0-2.9,0.8-4.7,2.4-5.1l0-0.4c-0.9,0.1-1.9,0.6-2.9,1.3
	c-0.6,0.4-1.1,0.8-1.5,1.1c-0.4,0.3-0.8,0.5-1,0.6c-0.9,0.2-1.5,0.4-1.9,0.4l0,0c0.2,0.1,0.3,0.2,0.4,0.3c0.1,0.1,0.3,0.2,0.4,0.4
	c0.5,0.5,0.8,1,0.8,1.5v3h-1.9v1.3h1.9v6.5c0,0.9-0.1,1.5-0.2,2c-0.2,0.6-0.7,1.1-1.3,1.4c1,0.5,1.6,0.9,1.9,1.2
	c0.4,0.4,0.8,1,1.3,1.9c0.2-0.4,0.5-0.8,0.7-1.1c0.2-0.3,0.4-0.6,0.7-0.8c0.4-0.3,1-0.8,1.9-1.3c-1.1-0.5-1.6-1.6-1.6-3.4v-6.5
	c0.7,0,1.2,0.1,1.5,0.3c0.3,0.2,0.4,0.7,0.4,1.4c0,0.1,0,0.1,0,0.2c0,0.1,0,0.2,0,0.3v0.5H44.4z"/>
<path class="st0" d="M58.1,33.7c-0.7,0.4-1.3,0.8-1.8,1.3c-0.3,0.4-0.8,1.1-1.3,2.1c-0.1-0.2-0.2-0.4-0.3-0.5
	c-0.1-0.2-0.2-0.3-0.3-0.5c-0.1,0.1-0.1,0.2-0.1,0.3c-0.4-0.7-0.8-1.3-1.1-1.7c-0.4-0.3-0.9-0.5-1.3-0.5c-1,0-2.1,1-3.2,3
	c-0.1-0.2-0.2-0.4-0.3-0.6c-0.1-0.2-0.2-0.3-0.3-0.5c0,0.1-0.1,0.2-0.2,0.3c-0.5-1-0.9-1.7-1.1-2c-0.4-0.3-0.8-0.6-1.3-0.9
	c0,0,0.1,0,0.1,0c0.1,0,0.1,0,0.1-0.1c-0.2-0.1-0.3-0.2-0.5-0.3c-0.2-0.1-0.3-0.2-0.6-0.3c1.1-0.4,1.7-1.2,1.7-2.6
	c0-1-0.3-1.7-0.8-2.3l0.1-0.3c0.6,0.3,1.2,0.5,1.6,0.5c0.4,0,0.8-0.1,1.3-0.4c-0.1-0.2-0.2-0.4-0.3-0.6c-0.1-0.2-0.2-0.3-0.3-0.5
	c0,0-0.1,0.1-0.1,0.1c0,0.1,0,0.1-0.1,0.1c-0.3-0.5-0.6-1-0.8-1.3c-0.2-0.3-0.4-0.6-0.5-0.7c-0.2-0.1-0.3-0.3-0.5-0.4
	c-0.2-0.1-0.4-0.2-0.7-0.4c0,0,0.1,0,0.1-0.1c0,0,0.1,0,0.2-0.1c-0.3-0.2-0.6-0.4-1-0.6c1-0.5,1.7-1,2-1.4c0.1-0.1,0.2-0.4,0.4-0.8
	c0.2-0.4,0.4-0.9,0.7-1.5c0.1,0.2,0.2,0.4,0.3,0.6c0.1,0.2,0.2,0.4,0.3,0.5c0.1-0.2,0.1-0.3,0.2-0.4c0.5,1,0.9,1.7,1.3,2.3
	c0.3,0.3,0.7,0.4,1.1,0.4c1,0,2-1.1,3.1-3.4c0.1,0.2,0.2,0.4,0.3,0.6c0.1,0.2,0.2,0.4,0.3,0.5c0-0.1,0.1-0.1,0.1-0.2
	c0-0.1,0.1-0.1,0.1-0.2c0.2,0.5,0.4,0.9,0.6,1.3c0.2,0.4,0.4,0.6,0.5,0.9c0.4,0.3,0.9,0.6,1.5,0.9c-0.1,0-0.1,0.1-0.2,0.1
	c0,0-0.1,0-0.1,0.1c0.3,0.2,0.6,0.4,1,0.6c-0.5,0.2-0.9,0.6-1.2,1.1s-0.5,0.9-0.5,1.4v3.8c0,0.8,0.1,1.3,0.2,1.7
	c0,0.1,0,0.1,0.1,0.2c0.1,0.1,0.2,0.1,0.4,0.2V33h0c0.2,0.2,0.4,0.3,0.8,0.5V33.7z M56,31.7c-0.2-0.4-0.2-1-0.2-1.8V26
	c0-0.5,0.1-1,0.4-1.5c0.3-0.5,0.7-0.8,1.1-1c-0.8-0.4-1.5-0.9-1.9-1.4c-0.3-0.4-0.7-1.1-1.1-2c-1,2.1-2,3.2-3.1,3.2
	c-1.1,0-2.2-1.1-3.2-3.2c-0.2,0.5-0.5,1-0.6,1.3c-0.2,0.3-0.3,0.6-0.4,0.7c-0.4,0.5-1,1-1.8,1.4c0.8,0.4,1.4,0.9,1.7,1.3
	c0.2,0.2,0.5,0.8,1.1,1.9c1.1-1.9,2.1-2.9,3.1-2.9c0.4,0,0.7,0.2,1,0.5c0.3,0.4,0.4,0.7,0.4,1.1v2c-0.6-0.5-1.1-0.8-1.6-0.8
	c-0.4,0-0.9,0.3-1.6,0.8c-0.7,0.5-1.3,0.8-1.9,0.8c-0.5,0-1-0.1-1.6-0.4c0.6,0.5,0.9,1.3,0.9,2.4c0,1.5-0.5,2.4-1.5,2.7
	c0.7,0.4,1.3,0.9,1.7,1.4c0.2,0.3,0.6,0.9,1.1,1.9c1.1-1.9,2.1-2.9,3.2-2.9c1,0,2.1,1,3.1,2.9c0.5-0.9,0.9-1.5,1.2-1.9
	c0.4-0.5,1-0.9,1.8-1.4C56.7,32.6,56.2,32.1,56,31.7z M52.2,24.8c-0.1-0.1-0.2-0.1-0.3-0.1c-1,0-2,1-3.1,3c0.1,0,0.2-0.1,0.2-0.1
	c0.1-0.1,0.1-0.1,0.2-0.2c0.7-0.5,1.3-0.8,1.7-0.8c0.5,0,0.9,0.2,1.5,0.6v-1.7C52.4,25.3,52.4,25.1,52.2,24.8z M52.6,30.5
	c0,1.5-0.5,2.2-1.4,2.2c-0.6,0-1-0.3-1.2-0.9c-0.1-0.4-0.1-0.9-0.1-1.7c0-1.7,0.4-2.6,1.3-2.6c0.6,0,1.1,0.4,1.5,1.2V30.5z
	 M52.4,28.7c0,0-0.1-0.1-0.1-0.1c0-0.1,0-0.1-0.1-0.1c-0.1-0.1-0.3-0.1-0.4-0.1c-0.8,0-1.1,0.8-1.1,2.4c0,0.7,0,1.3,0.1,1.7v0
	c0,0,0,0.1,0,0.1c0.1,0,0.2,0,0.3,0c0.8,0,1.3-0.7,1.3-2.1V28.7z"/>
<path class="st0" d="M66.2,14.7c-0.8,0.2-1.4,0.9-1.8,2c-0.4,0.9-0.5,1.9-0.5,2.9v10.7c0,0.8,0.1,1.4,0.3,1.8c0,0,0,0.1,0,0.1
	c0.2,0.2,0.5,0.3,0.7,0.4c-0.1,0.1-0.2,0.1-0.3,0.1c0.3,0.2,0.6,0.4,1,0.6c-0.5,0.3-0.9,0.5-1.2,0.8c-0.3,0.3-0.6,0.5-0.9,0.8
	c-0.4,0.4-0.8,1.1-1.5,2.2c-0.1-0.2-0.2-0.4-0.3-0.5c-0.1-0.2-0.2-0.3-0.3-0.5c0,0-0.1,0.1-0.1,0.3c-0.3-0.4-0.5-0.8-0.7-1.2
	c-0.2-0.3-0.4-0.6-0.6-0.9c-0.2-0.2-0.4-0.3-0.7-0.5c-0.3-0.2-0.5-0.3-0.8-0.5c0,0,0.1,0,0.1-0.1c0,0,0.1,0,0.1-0.1
	c-0.2-0.1-0.3-0.2-0.5-0.3c-0.2-0.1-0.3-0.2-0.5-0.3c0.8-0.4,1.3-0.8,1.5-1.2c0.2-0.4,0.2-1,0.2-1.8v-3.2c0-1-0.2-1.8-0.7-2.4
	c0,0-0.1-0.1-0.1-0.1c-0.1,0-0.1-0.1-0.1-0.1l0.1-0.1c-0.1-0.2-0.2-0.3-0.4-0.4c-0.2-0.1-0.3-0.2-0.5-0.3c0.8-0.5,1.3-1,1.5-1.5
	c0.2-0.4,0.2-1,0.2-1.9c0-0.9-0.2-1.6-0.5-2.1c-0.1-0.1-0.2-0.1-0.4-0.2l0.1-0.3c-0.2-0.2-0.5-0.4-0.8-0.5l0.1-0.3
	c0.1,0,0.2,0,0.3,0c0.1,0,0.2,0,0.3,0c0.9,0,2.1-0.5,3.4-1.4c0.8-0.5,1.4-1,2-1.3c0.6-0.3,1.1-0.5,1.6-0.6v0.6L65.4,14
	c-0.4,0.1-0.8,0.4-1.1,0.7c0.4-0.2,0.7-0.4,1.1-0.5c0.3-0.1,0.6-0.2,0.9-0.3v0.6L66.2,14.7z M65.4,13.4c-0.8,0.2-2,0.7-3.4,1.8
	c-1.4,1-2.5,1.5-3.5,1.5c-0.1,0-0.2,0-0.3,0c-0.1,0-0.2,0-0.3,0c1.1,0.4,1.6,1.4,1.6,3.2c0,0.9-0.1,1.6-0.2,2
	c-0.2,0.5-0.7,1-1.4,1.4c1,0.6,1.6,1.7,1.6,3.3v3.2c0,0.8-0.1,1.4-0.2,1.8c-0.2,0.5-0.6,0.9-1.3,1.2c0.8,0.4,1.4,0.9,1.9,1.5
	c0.2,0.2,0.4,0.5,0.6,0.8c0.2,0.3,0.5,0.7,0.7,1.2c0.5-0.9,1-1.6,1.3-2c0.2-0.3,0.5-0.5,0.8-0.8c0.3-0.3,0.7-0.5,1.1-0.7
	c-0.7-0.3-1.1-0.7-1.3-1.2c-0.2-0.4-0.3-1-0.3-1.8V18.9c0-1.1,0.2-2,0.5-3c0.5-1.2,1.1-1.9,1.9-2.1V13.4z"/>
<g class="st1">
	<path class="st0" d="M110.5,33.6c-0.6,0-1.5,0.4-2.6,1.3c-0.4,0.3-1.2,1-2.4,2.2c-0.1-0.2-0.2-0.3-0.3-0.4
		c-0.1-0.1-0.2-0.3-0.4-0.4l-0.1,0.1c-0.1-0.1-0.1-0.2-0.2-0.2c-0.1-0.1-0.1-0.1-0.2-0.2c-0.2-0.2-0.4-0.3-0.7-0.5
		c-0.2-0.2-0.5-0.4-0.8-0.5c-1.3-0.8-2.2-1.2-2.9-1.2v-0.3c0.2,0,0.3,0,0.5-0.1c-0.2-0.1-0.4-0.2-0.7-0.2c-0.2,0-0.4-0.1-0.5-0.1
		v-0.3c0.5,0,0.8-0.4,1.1-1c0.3-0.6,0.4-1.2,0.4-1.7v-3.2c0-0.9-0.2-1.6-0.6-2.1c-0.1,0-0.1-0.1-0.2-0.1c-0.1,0-0.1-0.1-0.2-0.1
		l0-0.1c-0.1-0.1-0.2-0.2-0.3-0.3c-0.1-0.1-0.3-0.2-0.4-0.3l0.1-0.2c3.4,0,5.9-1.2,7.5-3.5c0.1,0.2,0.2,0.4,0.3,0.5
		c0.1,0.2,0.2,0.3,0.3,0.5c0,0,0.1-0.1,0.1-0.1c0,0,0.1-0.1,0.1-0.1c0.4,0.8,0.8,1.5,1.1,1.9c0.2,0.2,0.5,0.3,0.7,0.5
		c0.3,0.2,0.6,0.3,0.9,0.5c-0.2,0.1-0.3,0.1-0.3,0.2c0.2,0.1,0.3,0.2,0.5,0.3c0.2,0.1,0.4,0.2,0.6,0.3c-0.8,0.4-1.5,1.2-2,2.5
		c-0.2,0.5-0.4,1.1-0.5,1.6c-0.1,0.5-0.2,1-0.3,1.6h-0.3c0-0.3-0.1-0.6-0.1-0.9c0-0.3-0.1-0.6-0.2-0.8c0,0.2-0.1,0.3-0.1,0.5
		c0,0.2,0,0.3-0.1,0.5H107c-0.2-1.3-0.4-2.5-0.8-3.5c-0.1-0.3-0.2-0.5-0.3-0.7c-0.1-0.2-0.2-0.4-0.3-0.6c-0.1,0-0.2-0.1-0.3-0.1
		c-0.1,0-0.2,0-0.2-0.1v6.2c0,0.5,0.1,1,0.4,1.4c0.9,0.6,2.3,0.9,4.3,0.9v0.3c-0.2,0-0.4,0.1-0.6,0.1c-0.2,0-0.4,0.1-0.6,0.2
		c0.3,0,0.6,0.1,0.9,0.1c0.3,0,0.6,0,1,0V33.6z M104.3,29.6v-6.3c0.8-0.1,1.5,0.7,2.1,2.3c0.4,1.1,0.6,2.2,0.8,3.4h0.1
		c0.1-0.5,0.2-1,0.3-1.5c0.1-0.5,0.3-1,0.5-1.5c0.5-1.3,1.1-2.1,1.8-2.4c-0.8-0.4-1.4-0.8-1.9-1.4c-0.2-0.2-0.4-0.5-0.6-0.8
		c-0.2-0.3-0.4-0.7-0.7-1.2c-1.5,2.2-4,3.4-7.4,3.4c1.2,0.6,1.7,1.7,1.7,3.2v3.2c0,0.6-0.1,1.2-0.4,1.8c-0.3,0.7-0.8,1.1-1.3,1.1
		c0.7,0,1.7,0.4,3,1.2c1.3,0.8,2.1,1.5,2.5,2.2c1.1-1,1.9-1.7,2.3-2.1c1.1-0.8,2-1.3,2.7-1.3C106.1,32.8,104.3,31.7,104.3,29.6z"/>
	<path class="st0" d="M123.7,33.6c-0.8,0.4-1.3,1.2-1.6,2.5c-0.4,1.7-0.7,2.8-1.1,3.3c-0.8,1.3-2.4,2.2-4.6,2.8v-0.8
		c0.4-0.2,0.8-0.3,1.1-0.6c-0.5,0.2-1.1,0.4-1.8,0.6v-0.8c1.4-0.4,2.1-1.6,2.1-3.5V25.3c0-0.1,0-0.2-0.1-0.3c0,0-0.1,0-0.1-0.1
		c-0.5-0.2-0.9-0.3-1.4-0.3h-0.4v5.8c0,0.8,0.1,1.4,0.3,1.8c0,0,0,0.1,0,0.1c0.2,0.2,0.5,0.3,0.7,0.4c-0.1,0-0.1,0.1-0.2,0.1
		c0,0-0.1,0-0.1,0.1c0.2,0.2,0.6,0.4,1,0.6c-0.5,0.2-0.9,0.5-1.2,0.8c-0.3,0.3-0.6,0.6-0.9,0.8c-0.2,0.2-0.4,0.5-0.7,0.9
		c-0.2,0.4-0.5,0.8-0.8,1.3c-0.1-0.2-0.2-0.4-0.3-0.5s-0.2-0.3-0.3-0.5c0,0-0.1,0.1-0.1,0.1c0,0,0,0.1-0.1,0.1
		c-0.6-1-1.1-1.7-1.5-2.1c-0.4-0.3-0.9-0.6-1.4-0.9c0,0,0.1,0,0.1-0.1c0.1,0,0.1,0,0.1-0.1c-0.2-0.1-0.3-0.2-0.5-0.3
		c-0.2-0.1-0.4-0.2-0.5-0.3c0.8-0.4,1.3-0.8,1.5-1.2c0.2-0.4,0.2-1,0.2-1.8v-3.3c0-0.9-0.2-1.7-0.6-2.3c-0.1,0-0.1-0.1-0.2-0.1
		c-0.1,0-0.1-0.1-0.2-0.1l0.1-0.1c-0.2-0.3-0.5-0.5-0.9-0.7c0.8-0.5,1.3-1,1.5-1.5c0.2-0.4,0.2-1,0.2-1.9c0-0.9-0.2-1.5-0.5-2
		c-0.1,0-0.1-0.1-0.2-0.1c-0.1,0-0.1-0.1-0.2-0.1l0.1-0.2c-0.2-0.2-0.5-0.4-0.8-0.5l0.1-0.3c0.1,0,0.2,0,0.3,0c0.1,0,0.2,0,0.3,0
		c0.9,0,2.1-0.5,3.5-1.6c1.4-1.1,2.6-1.7,3.6-1.7c0.8,0,1.6,0.2,2.2,0.7c0.3,0.2,0.5,0.5,0.7,0.7c0,0,0,0,0.1,0
		c0.7,0.5,1.1,1.2,1.1,2c0,0.6-0.2,1-0.5,1.4c-0.4,0.4-0.8,0.6-1.4,0.6c-0.9,0-1.4-0.3-1.6-0.9c-0.6-0.2-0.9-0.7-0.9-1.5
		c0-0.3,0.1-0.5,0.2-0.7c-0.2,0.1-0.4,0.3-0.5,0.5c-0.2,0.2-0.3,0.4-0.4,0.7h0c-0.4,0.9-0.7,1.9-0.7,3v3.1c0.8-0.1,1.5-0.4,2-0.7
		c0.6-0.4,1.2-1.3,1.9-2.7c0.1,0.2,0.2,0.4,0.3,0.6c0.1,0.2,0.2,0.4,0.3,0.5c0-0.1,0.1-0.1,0.1-0.2c0-0.1,0.1-0.1,0.1-0.2
		c0.2,0.5,0.4,0.9,0.6,1.3c0.2,0.4,0.4,0.7,0.5,0.9c0.4,0.3,1,0.6,1.6,0.9c-0.1,0-0.1,0.1-0.2,0.1c-0.1,0-0.1,0.1-0.2,0.1
		c0.2,0.1,0.3,0.2,0.5,0.3c0.2,0.1,0.4,0.2,0.6,0.3c-0.5,0.3-1,0.6-1.3,1.1c-0.3,0.5-0.5,1-0.5,1.5v4c0,0.9,0.5,1.9,1.5,3
		L123.7,33.6z M121.4,29.7v-4c0-0.5,0.1-1,0.4-1.5c0.3-0.5,0.7-0.8,1.1-1.1c-0.9-0.4-1.5-0.8-2-1.4c-0.4-0.4-0.8-1.1-1.2-2.1
		c-0.6,1.2-1.2,2-1.8,2.5c-0.7,0.5-1.7,0.8-3,0.8v-4c0-1.1,0.2-2.2,0.7-3.1c0.5-1.1,1.3-1.6,2.4-1.6c0.5,0,0.9,0.2,1.3,0.5
		c0.4,0.3,0.6,0.7,0.6,1.2c0,0.1,0,0.1,0,0.2c0,0.1,0,0.1,0,0.2c-0.1-0.9-0.5-1.4-1.2-1.4c-0.4,0-0.7,0.1-0.9,0.4
		c-0.2,0.3-0.4,0.6-0.4,1c0,1,0.5,1.5,1.6,1.5c0.5,0,1-0.2,1.3-0.5c0.3-0.4,0.5-0.8,0.5-1.3c0-0.7-0.3-1.4-1-1.8
		c-0.6-0.4-1.3-0.6-2.1-0.6c-0.9,0-2.1,0.5-3.5,1.6c-1.4,1.1-2.6,1.6-3.6,1.6c-0.1,0-0.2,0-0.3,0c-0.1,0-0.2,0-0.3,0
		c1.1,0.5,1.7,1.5,1.7,3.1c0,0.9-0.1,1.6-0.2,2c-0.2,0.5-0.7,0.9-1.4,1.4c1.1,0.6,1.6,1.7,1.6,3.3v3.3c0,0.8-0.1,1.4-0.2,1.8
		c-0.2,0.5-0.6,0.9-1.3,1.2c0.8,0.4,1.4,0.9,1.9,1.5c0.2,0.2,0.4,0.5,0.6,0.8c0.2,0.3,0.5,0.7,0.7,1.2c0.3-0.5,0.5-0.9,0.7-1.2
		c0.2-0.3,0.4-0.6,0.6-0.8c0.5-0.6,1.1-1.1,1.9-1.5c-0.7-0.3-1.1-0.7-1.3-1.2c-0.2-0.4-0.3-1-0.3-1.8v-6h0.3c0.6,0,1.2,0.1,1.7,0.3
		c0.7,0.3,1,0.7,1,1.2v11.9c0,2-0.7,3.2-2.1,3.6v0.5c2.1-0.5,3.6-1.4,4.4-2.6c0.3-0.5,0.7-1.6,1.1-3.3c0.2-1.3,0.8-2.1,1.6-2.6
		C121.9,31.7,121.4,30.7,121.4,29.7z"/>
	<path class="st0" d="M136.6,33.7c-0.7,0.4-1.3,0.8-1.8,1.3c-0.3,0.4-0.8,1.1-1.3,2.1c-0.1-0.2-0.2-0.4-0.3-0.5
		c-0.1-0.2-0.2-0.3-0.3-0.5c-0.1,0.1-0.1,0.2-0.1,0.3c-0.4-0.7-0.8-1.3-1.1-1.7c-0.4-0.3-0.9-0.5-1.3-0.5c-1,0-2.1,1-3.2,3
		c-0.1-0.2-0.2-0.4-0.3-0.6c-0.1-0.2-0.2-0.3-0.3-0.5c0,0.1-0.1,0.2-0.2,0.3c-0.5-1-0.9-1.7-1.1-2c-0.4-0.3-0.8-0.6-1.3-0.9
		c0,0,0.1,0,0.1,0c0.1,0,0.1,0,0.1-0.1c-0.2-0.1-0.3-0.2-0.5-0.3c-0.2-0.1-0.3-0.2-0.6-0.3c1.1-0.4,1.7-1.2,1.7-2.6
		c0-1-0.3-1.7-0.8-2.3l0.1-0.3c0.6,0.3,1.2,0.5,1.6,0.5c0.4,0,0.8-0.1,1.3-0.4c-0.1-0.2-0.2-0.4-0.3-0.6s-0.2-0.3-0.3-0.5
		c0,0-0.1,0.1-0.1,0.1c0,0.1,0,0.1-0.1,0.1c-0.3-0.5-0.6-1-0.8-1.3c-0.2-0.3-0.4-0.6-0.5-0.7c-0.2-0.1-0.3-0.3-0.5-0.4
		c-0.2-0.1-0.4-0.2-0.7-0.4c0,0,0.1,0,0.1-0.1c0,0,0.1,0,0.2-0.1c-0.3-0.2-0.6-0.4-1-0.6c1-0.5,1.7-1,2-1.4c0.1-0.1,0.2-0.4,0.4-0.8
		c0.2-0.4,0.4-0.9,0.7-1.5c0.1,0.2,0.2,0.4,0.3,0.6c0.1,0.2,0.2,0.4,0.3,0.5c0.1-0.2,0.1-0.3,0.2-0.4c0.5,1,0.9,1.7,1.3,2.3
		c0.3,0.3,0.7,0.4,1.1,0.4c1,0,2-1.1,3.1-3.4c0.1,0.2,0.2,0.4,0.3,0.6c0.1,0.2,0.2,0.4,0.3,0.5c0-0.1,0.1-0.1,0.1-0.2
		c0-0.1,0.1-0.1,0.1-0.2c0.2,0.5,0.4,0.9,0.6,1.3c0.2,0.4,0.4,0.6,0.5,0.9c0.4,0.3,0.9,0.6,1.5,0.9c-0.1,0-0.1,0.1-0.2,0.1
		c0,0-0.1,0-0.1,0.1c0.3,0.2,0.6,0.4,1,0.6c-0.5,0.2-0.9,0.6-1.2,1.1c-0.3,0.5-0.5,0.9-0.5,1.4v3.8c0,0.8,0.1,1.3,0.2,1.7
		c0,0.1,0,0.1,0.1,0.2c0.1,0.1,0.2,0.1,0.4,0.2V33h0c0.2,0.2,0.4,0.3,0.8,0.5V33.7z M134.5,31.7c-0.2-0.4-0.2-1-0.2-1.8V26
		c0-0.5,0.1-1,0.4-1.5c0.3-0.5,0.7-0.8,1.1-1c-0.8-0.4-1.5-0.9-1.9-1.4c-0.3-0.4-0.7-1.1-1.1-2c-1,2.1-2,3.2-3.1,3.2
		c-1.1,0-2.2-1.1-3.2-3.2c-0.2,0.5-0.5,1-0.6,1.3c-0.2,0.3-0.3,0.6-0.4,0.7c-0.4,0.5-1,1-1.8,1.4c0.8,0.4,1.4,0.9,1.7,1.3
		c0.2,0.2,0.5,0.8,1.1,1.9c1.1-1.9,2.1-2.9,3.1-2.9c0.4,0,0.7,0.2,1,0.5c0.3,0.4,0.4,0.7,0.4,1.1v2c-0.6-0.5-1.1-0.8-1.6-0.8
		c-0.4,0-0.9,0.3-1.6,0.8c-0.7,0.5-1.3,0.8-1.9,0.8c-0.5,0-1-0.1-1.6-0.4c0.6,0.5,0.9,1.3,0.9,2.4c0,1.5-0.5,2.4-1.5,2.7
		c0.7,0.4,1.3,0.9,1.7,1.4c0.2,0.3,0.6,0.9,1.1,1.9c1.1-1.9,2.1-2.9,3.2-2.9c1,0,2.1,1,3.1,2.9c0.5-0.9,0.9-1.5,1.2-1.9
		c0.4-0.5,1-0.9,1.8-1.4C135.2,32.6,134.7,32.1,134.5,31.7z M130.7,24.8c-0.1-0.1-0.2-0.1-0.3-0.1c-1,0-2,1-3.1,3
		c0.1,0,0.2-0.1,0.2-0.1c0.1-0.1,0.1-0.1,0.2-0.2c0.7-0.5,1.3-0.8,1.7-0.8c0.5,0,0.9,0.2,1.5,0.6v-1.7
		C130.9,25.3,130.8,25.1,130.7,24.8z M131,30.5c0,1.5-0.5,2.2-1.4,2.2c-0.6,0-1-0.3-1.2-0.9c-0.1-0.4-0.1-0.9-0.1-1.7
		c0-1.7,0.4-2.6,1.3-2.6c0.6,0,1.1,0.4,1.5,1.2V30.5z M130.9,28.7c0,0-0.1-0.1-0.1-0.1c0-0.1,0-0.1-0.1-0.1
		c-0.1-0.1-0.3-0.1-0.4-0.1c-0.8,0-1.1,0.8-1.1,2.4c0,0.7,0,1.3,0.1,1.7v0c0,0,0,0.1,0,0.1c0.1,0,0.2,0,0.3,0c0.8,0,1.3-0.7,1.3-2.1
		V28.7z"/>
	<path class="st0" d="M149.5,33.6c-0.7,0.4-1.3,0.8-1.8,1.4c-0.1,0.1-0.3,0.4-0.5,0.7c-0.2,0.4-0.5,0.8-0.8,1.4
		c-0.1-0.2-0.2-0.4-0.3-0.6c-0.1-0.2-0.2-0.3-0.3-0.4c0,0-0.1,0.1-0.1,0.1c0,0,0,0.1-0.1,0.1c-0.3-0.5-0.6-1-0.8-1.4
		c-0.2-0.4-0.4-0.6-0.5-0.8h0c-0.2-0.1-0.3-0.3-0.5-0.4c-0.2-0.1-0.3-0.2-0.5-0.3c-0.4,0.2-0.7,0.4-1,0.7c-0.3,0.2-0.5,0.5-0.8,0.8
		c-0.2,0.2-0.3,0.4-0.6,0.8c-0.2,0.3-0.5,0.8-0.8,1.3c-0.1-0.2-0.2-0.4-0.3-0.6c-0.1-0.2-0.2-0.3-0.3-0.5c0,0-0.1,0.1-0.1,0.1
		c0,0,0,0.1-0.1,0.2c-0.3-0.5-0.5-0.9-0.8-1.3c-0.2-0.3-0.4-0.6-0.6-0.8c-0.2-0.2-0.4-0.3-0.6-0.4c-0.2-0.1-0.5-0.3-0.7-0.4
		c0,0,0.1,0,0.1-0.1c0,0,0.1,0,0.1-0.1c-0.3-0.2-0.7-0.4-1-0.6c0.8-0.4,1.2-0.8,1.5-1.2c0.2-0.4,0.2-1,0.2-1.7V26
		c0-0.5-0.2-1-0.5-1.5c-0.1,0-0.1-0.1-0.2-0.1c-0.1,0-0.1-0.1-0.2-0.1c0,0,0,0,0.1,0c0,0,0,0,0.1,0c-0.2-0.3-0.5-0.5-0.9-0.7
		c0.5-0.2,0.9-0.5,1.2-0.7c0.3-0.2,0.6-0.5,0.8-0.7c0.3-0.4,0.7-1.1,1.3-2.2c0.1,0.2,0.2,0.4,0.3,0.6c0.1,0.2,0.2,0.3,0.3,0.5
		l0.2-0.3c0.4,0.9,0.9,1.6,1.3,2.1c0.4,0.3,0.7,0.4,1.1,0.4c1,0,2-1.1,3.1-3.2c0.1,0.2,0.2,0.4,0.3,0.6c0.1,0.2,0.2,0.3,0.3,0.5
		l0.2-0.3c0.2,0.4,0.4,0.8,0.6,1.2c0.2,0.3,0.3,0.6,0.5,0.8c0.4,0.3,0.9,0.6,1.5,0.9c-0.1,0-0.1,0.1-0.2,0.1c0,0-0.1,0-0.1,0.1
		c0.3,0.2,0.6,0.4,1,0.6c-1.1,0.5-1.6,1.3-1.6,2.5v3.8c0,0.4,0,0.7,0.1,1c0,0.3,0.1,0.5,0.2,0.7c0,0.1,0,0.1,0.1,0.2
		c0.1,0.1,0.2,0.1,0.4,0.2v0.3c0.2,0.2,0.4,0.4,0.7,0.5V33.6z M147.4,31.5c-0.2-0.4-0.2-1-0.2-1.8V26c0-1.2,0.5-2,1.5-2.5
		c-0.9-0.4-1.5-0.9-1.9-1.3c-0.2-0.2-0.3-0.5-0.5-0.8c-0.2-0.3-0.4-0.7-0.7-1.2c-1,2.1-2.1,3.1-3.1,3.1c-1,0-2.1-1-3.1-3.1
		c-0.5,0.9-0.8,1.6-1.2,2c-0.2,0.2-0.5,0.5-0.8,0.7c-0.3,0.2-0.7,0.4-1.1,0.6c0.4,0.2,0.8,0.6,1.1,1c0.3,0.5,0.4,0.9,0.4,1.4v3.8
		c0,0.8-0.1,1.4-0.2,1.8c-0.2,0.5-0.6,0.9-1.3,1.2c0.7,0.4,1.3,0.9,1.8,1.4c0.2,0.2,0.3,0.4,0.5,0.7c0.2,0.3,0.4,0.7,0.7,1.2
		c0.5-1,1-1.6,1.2-1.9c0.5-0.6,1.1-1.1,1.8-1.5c-0.7-0.3-1.1-0.7-1.3-1.2c-0.2-0.4-0.2-1-0.2-1.8V26c0-0.5,0.1-1,0.4-1.5
		c0.3-0.5,0.7-0.7,1.2-0.7c0.5,0,0.9,0.2,1.2,0.7c0.2,0.4,0.4,0.9,0.4,1.5v3.8c0,0.9-0.1,1.4-0.2,1.8c-0.2,0.5-0.6,0.9-1.3,1.2
		c0.7,0.4,1.3,0.9,1.8,1.5c0.1,0.2,0.3,0.4,0.5,0.7c0.2,0.3,0.4,0.7,0.7,1.2c0.6-1.1,1.1-1.8,1.2-2c0.4-0.5,1-1,1.8-1.4
		C148,32.4,147.6,32,147.4,31.5z M142.6,32.6c0.6-0.3,1.1-0.7,1.2-1.1c0.1-0.3,0.2-0.9,0.2-1.7V26c0-0.5-0.1-0.9-0.3-1.2
		c-0.1-0.1-0.2-0.1-0.4-0.1c-0.5,0-0.8,0.2-1.1,0.7c-0.2,0.4-0.3,0.9-0.3,1.4v3.8c0,0.8,0.1,1.3,0.2,1.7c0,0,0,0,0,0.1
		c0,0,0,0,0,0.1L142.6,32.6z M143,33.1c-0.1-0.1-0.2-0.1-0.3-0.2c0.2,0.2,0.4,0.3,0.6,0.4C143.2,33.3,143.1,33.2,143,33.1z"/>
	<path class="st0" d="M162.4,40.3c-0.2,0-0.3,0-0.5,0c-0.2,0-0.3,0-0.5,0c-1.4,0-2.6,0.2-3.8,0.6c-1.4,0.5-2.5,1.3-3.1,2.3
		c-0.1-0.2-0.2-0.3-0.3-0.5c-0.1-0.1-0.2-0.3-0.3-0.4l-0.1,0.1c-0.1-0.1-0.1-0.2-0.2-0.3c-0.1-0.1-0.1-0.2-0.2-0.2
		c-0.6-0.4-1.2-0.6-1.8-0.6c-0.5,0-0.8,0.2-1,0.7v0c-0.1,0.3-0.2,0.6-0.2,0.7c-0.1,0.1-0.2,0.2-0.2,0.2c-0.2,0-0.3-0.2-0.3-0.7
		s0-0.9,0.1-1.3c-0.1,0.1-0.1,0.2-0.1,0.3v0c-0.1,0.3-0.2,0.6-0.2,0.7c-0.1,0.1-0.2,0.2-0.2,0.2c-0.2,0-0.3-0.2-0.3-0.7
		c0-1,0.2-1.8,0.6-2.3c0.1-0.1,0.2-0.3,0.5-0.4c0.2-0.2,0.5-0.4,0.9-0.6c0.6-0.4,1-1,1.4-1.7c-0.2-0.5-0.5-0.9-0.6-1.3
		c-0.2-0.3-0.3-0.6-0.5-0.8c-0.2-0.2-0.4-0.3-0.7-0.4c-0.3-0.1-0.5-0.3-0.9-0.4c0.1,0,0.1-0.1,0.2-0.1c0.1,0,0.1-0.1,0.2-0.1
		c-0.2-0.1-0.3-0.2-0.5-0.3c-0.2-0.1-0.4-0.2-0.6-0.3c1.1-0.5,1.7-1.4,1.7-2.5v-3.8c0-0.9-0.2-1.5-0.5-2c0,0-0.1-0.1-0.2-0.1l0-0.1
		c-0.2-0.2-0.4-0.4-0.8-0.6l0.1-0.2c1.2,0,2.5-0.3,3.8-0.9c1.3-0.6,2.3-1.5,3-2.5c0.2,0.4,0.4,0.7,0.6,0.9c0-0.1,0.1-0.1,0.1-0.2
		c0.2,0.4,0.4,0.7,0.7,1c0.2,0.1,0.3,0.3,0.5,0.4c0.2,0.1,0.3,0.2,0.5,0.3c1.1,0.7,2.1,1,3,1l0,0.3c-0.1,0-0.2,0.1-0.3,0.1
		c-0.1,0-0.2,0.1-0.3,0.2c0.4,0.1,0.9,0.2,1.3,0.2l0,0.3c-0.5,0.1-0.9,0.4-1.1,1.1c-0.2,0.5-0.4,1.1-0.4,1.7v3.2
		c0,0.9,0.2,1.6,0.6,2.2c0,0,0.1,0.1,0.1,0.1c0.1,0,0.1,0.1,0.2,0.1c0,0-0.1,0.1-0.1,0.1c0.2,0.3,0.5,0.5,0.9,0.7
		c-0.8,0.5-1.3,1-1.5,1.6c-0.1,0.3-0.2,1-0.2,2c0,0.9,0.1,1.6,0.4,2.1c0.2,0.1,0.3,0.1,0.4,0.1l0,0.3h0c0.2,0.2,0.5,0.4,0.8,0.5
		L162.4,40.3z M160,36.3c0-1,0.1-1.7,0.2-2c0.2-0.5,0.7-1.1,1.4-1.5c-1-0.6-1.5-1.6-1.5-3.2v-3.2c0-0.7,0.1-1.3,0.4-1.8
		c0.3-0.7,0.7-1.1,1.2-1.2c-1,0-2-0.3-3.1-1c-1.1-0.7-1.9-1.5-2.4-2.3c-0.7,0.9-1.7,1.7-3,2.4c-1.3,0.6-2.6,1-3.8,1
		c1,0.5,1.5,1.5,1.5,3v3.8c0,1.1-0.5,2-1.5,2.4c0.8,0.3,1.5,0.8,1.9,1.3c0.3,0.4,0.7,1.1,1.2,2c0.6-1.2,1.1-2,1.5-2.4
		c0.6-0.5,1.5-0.8,2.7-0.8v6.2c-0.1,0-0.2,0-0.3,0c-0.1,0-0.2,0-0.3,0c-1.3,0-2.5-0.8-3.6-2.5c-0.1,0.3-0.3,0.6-0.5,0.8
		c-0.2,0.2-0.5,0.5-0.8,0.7c-0.7,0.5-1.2,0.9-1.3,1c-0.4,0.5-0.6,1.3-0.6,2.2c0,0.3,0,0.5,0.1,0.5c0.1,0,0.2-0.3,0.3-0.8
		c0.2-0.5,0.5-0.8,1.1-0.8c1.2,0,2.1,0.6,2.9,1.7c0.6-1,1.6-1.7,3.1-2.2c1.2-0.4,2.4-0.6,3.8-0.6c0.2,0,0.3,0,0.5,0
		c0.2,0,0.3,0,0.5,0C160.6,39.2,160,38.2,160,36.3z M152.5,36.5c0.1,0.2,0.2,0.3,0.3,0.4c0.1,0.1,0.2,0.3,0.3,0.4c0,0,0-0.1,0-0.1
		c0,0,0,0,0-0.1c-0.1-0.2-0.2-0.4-0.3-0.6c-0.1-0.2-0.2-0.3-0.3-0.5C152.6,36.3,152.5,36.4,152.5,36.5z M156.3,39.1
		c0.1,0,0.1,0,0.2,0V34c-0.7,0.1-1.3,0.3-1.7,0.7c-0.4,0.3-0.9,1.2-1.6,2.6c0.1,0.2,0.3,0.4,0.4,0.6c0.1,0.2,0.3,0.3,0.4,0.5
		c0.7,0.6,1.4,0.9,2.1,0.9C156.1,39.1,156.2,39.1,156.3,39.1z M156.7,32.2c-0.2,0-0.3,0-0.4,0c-0.1,0-0.1,0-0.2,0
		c-1.3,0-2-0.5-2-1.5v-7.5c1.7,0.8,2.5,2.1,2.5,3.8V32.2z M156.5,32.1v-5c0-0.9-0.2-1.7-0.7-2.3c-0.1-0.1-0.2-0.2-0.4-0.3
		c-0.1-0.1-0.3-0.2-0.4-0.2v7.3c0,0.2,0,0.4,0.1,0.4c0.1,0.1,0.3,0.1,0.5,0.1c0.2,0,0.4,0,0.6,0H156.5z"/>
	<path class="st0" d="M173.6,33.6c-0.9,0.1-1.8,0.5-2.8,1.1c-0.5,0.3-0.9,0.7-1.3,1.1c-0.4,0.4-0.7,0.8-1,1.3
		c-0.1-0.2-0.2-0.3-0.3-0.5c-0.1-0.2-0.2-0.3-0.4-0.5l-0.1,0.2c-0.2-0.3-0.4-0.6-0.6-0.9c-0.2-0.2-0.3-0.3-0.5-0.4
		c-0.2-0.1-0.4-0.2-0.6-0.4c-0.9-0.5-2.1-1-3.5-1.2c0.1-0.1,0.2-0.1,0.3-0.2s0.2-0.1,0.3-0.2c-0.2-0.1-0.5-0.1-0.7-0.2
		c-0.2-0.1-0.5-0.1-0.7-0.2c0.6-0.3,1-0.6,1.4-1.1c0.4-0.5,0.6-0.9,0.6-1.4v-3.6c0-0.8-0.2-1.5-0.6-2.1c-0.1,0-0.1-0.1-0.2-0.1
		c-0.1,0-0.1-0.1-0.2-0.1l0-0.1c-0.2-0.2-0.5-0.4-0.8-0.6l0.1-0.2c1.5,0,2.9-0.3,4.1-0.8c1.4-0.6,2.5-1.5,3.3-2.7
		c0.1,0.2,0.2,0.4,0.3,0.6c0.1,0.2,0.2,0.3,0.3,0.5c0,0,0.1-0.1,0.1-0.1c0-0.1,0.1-0.1,0.1-0.1c0.2,0.4,0.4,0.8,0.6,1.2
		c0.2,0.3,0.4,0.6,0.6,0.8c0.2,0.2,0.4,0.3,0.7,0.4c0.2,0.1,0.5,0.3,0.8,0.4c0,0-0.1,0.1-0.1,0.1c0,0-0.1,0.1-0.1,0.1
		c0.3,0.2,0.7,0.4,1,0.5c-0.3,0.3-0.5,0.6-0.7,0.9c-0.2,0.4-0.4,0.8-0.5,1.2c-0.1,0.5-0.3,1-0.4,1.3c-0.1,0.4-0.3,0.7-0.5,0.9
		c-0.7,0.8-1.9,1.4-3.5,1.8l0,0.4v0.1c0,0.5,0.1,0.9,0.3,1.2c0.2,0.1,0.5,0.2,0.8,0.3c0.6,0.2,1.6,0.3,3,0.3h0.6v0.3
		c-0.3,0-0.5,0.1-0.8,0.1c-0.3,0.1-0.5,0.1-0.8,0.3c0.2,0,0.5,0.1,0.8,0.1c0.3,0,0.6,0,0.9,0h0.6V33.6z M169.2,32.5
		c-1.3-0.4-2-1.2-2-2.5l0-0.5c1.7-0.4,2.9-1,3.6-1.8c0.3-0.4,0.6-1.1,0.9-2.2c0.3-1,0.6-1.7,1.1-2.1c-0.8-0.4-1.4-0.8-1.9-1.4
		c-0.2-0.2-0.4-0.5-0.6-0.8c-0.2-0.3-0.4-0.7-0.7-1.2c-0.8,1.1-1.9,2-3.3,2.6c-1.2,0.5-2.6,0.8-4.1,0.8c1.2,0.6,1.7,1.7,1.7,3.2v3.6
		c0,0.5-0.2,1-0.5,1.5c-0.3,0.5-0.7,0.8-1.2,1c1.1,0.2,2.1,0.6,3.1,1.2c1.1,0.6,1.9,1.4,2.4,2.2c0.5-0.9,1.2-1.6,2.2-2.3
		c1-0.7,1.9-1,2.8-1.1C171.1,32.8,169.8,32.7,169.2,32.5z M168.9,28.1c-0.5,0.4-1,0.7-1.7,0.8v-5.6c0.5,0,1.1,0.4,1.6,1.2
		c0.6,0.8,0.9,1.4,0.9,2C169.7,27.1,169.5,27.6,168.9,28.1z M168.8,24.5C168.7,24.5,168.7,24.5,168.8,24.5c-0.1-0.1-0.1-0.1-0.1-0.2
		c-0.2-0.1-0.4-0.2-0.5-0.2v4.3c0.3-0.1,0.5-0.3,0.7-0.5c0.5-0.4,0.7-0.9,0.7-1.5C169.6,25.9,169.3,25.3,168.8,24.5z M168.6,29.3
		c-0.1,0-0.1,0-0.2,0.1C168.5,29.3,168.6,29.3,168.6,29.3c0.1,0,0.2,0,0.2-0.1C168.8,29.2,168.7,29.2,168.6,29.3z"/>
</g>
<g class="st1">
	<path class="st0" d="M81.8,30.4L81.8,30.4L79,37c-1.2,3.9-3.4,5.9-6.6,6c-1.3,0.1-2.6-0.2-3.9-0.8C68.2,42,67.9,42,67.6,42
		c-0.6,0-1,0.2-1.4,0.6c-0.4,0.4-0.5,0.8-0.5,1.3c0.1,0.9,0.6,1.8,1.5,2.6c1.3,1.2,3.2,1.8,5.6,1.9c3,0.1,5.3-0.7,7.1-2.3
		c-0.7-1.2-1.1-2.1-1.1-3c-0.1-2,0.7-3.1,2.4-3.3c1.4,0.1,2,1,2,2.7c-0.1,1.4-0.6,2.6-1.5,3.7c1.2,1,2.9,1.5,5.1,1.5
		c3.7,0,5.6-1.4,5.6-4c0-0.3,0-0.5-0.1-0.7c-0.3-0.6-0.5-1-0.6-1.1c-0.1-0.1-0.2-0.2-0.2-0.3c0-0.2,0.1-0.3,0.3-0.3
		c0.1,0,0.3,0.1,0.5,0.3c0.7,0.9,1.1,1.5,1.1,1.8c0,1.3-0.4,2.5-1.2,3.6c-1.3,1.7-3.4,2.5-6.2,2.3c-2.2-0.1-3.9-0.8-5.2-2.1
		c-1.3,1.2-3,2-5.3,2.6c-0.4,0.1-0.9,0.1-1.4,0.2c-0.5,0-1,0.1-1.5,0.1c-1.9-0.1-3.5-0.5-4.8-1.1c-3.2-1.4-5-3.8-5.1-7.3
		c-0.2-4.7,1.9-7.1,6.3-7.2c0.8-0.1,1.9,0.1,3.1,0.6c0.8,0.4,1.5,0.7,2.3,0.7c1,0,2-0.4,2.8-1.1c0.4-0.4,1.5-2.6,3.2-6.5l-0.4-0.9
		c-0.3,0.5-0.8,0.7-1.6,0.4c-0.7-0.3-1-0.7-1-1.4c-1.2-0.4-2.2-0.6-2.9-0.8c-0.8-0.2-1.3-0.3-1.6-0.3c-2.5,0-4.7,0.5-6.5,1.6
		c2.2-4.1,5.4-6.4,9.5-7c-1.5-2.6-2.6-4.7-3.4-6.1c-0.8-1.5-1.4-2.4-1.6-2.8c-0.4-0.8-1.1-1.2-2-1.2c-0.1,0-0.2,0-0.3,0
		c-0.1,0-0.2,0-0.4,0.1C67,10,66.2,10.8,65.6,12c-0.1,0-0.2,0.1-0.3,0.1c-0.2,0-0.3-0.1-0.2-0.4c0-1,0.3-2.1,1-3.2
		c1-1.6,2.5-2.6,4.5-2.8c0.2,0,0.4-0.1,0.5-0.1c0.1,0,0.3,0,0.5,0c2.8,0,5.2,1.5,7.2,4.4c0.3,0.4,0.9,1.5,1.8,3
		c0.9,1.6,2.1,3.8,3.7,6.5l0.1,0.1c0.7-1.6,1.3-3,1.9-4.4c0.6-1.4,1.1-2.6,1.6-3.8c0.7-1.6,1.9-2.9,3.5-3.9c1.5-0.8,3-1.2,4.5-1.2
		c1.2,0,2.3,0.2,3.4,0.7c-0.1-0.3,0.1-0.6,0.6-0.9c0.7-0.2,1.1,0.1,1.3,0.9c0.1,0.4,0,0.7-0.1,0.9c0.3,0.2,0.5,0.4,0.7,0.5
		c0.2,0.1,0.4,0.3,0.5,0.4l1.2-0.7l0.6,0.8l-7,5.3c-1.5-1.5-3.1-2.3-4.9-2.3c-1,0-1.9,0.2-2.7,0.7L86,20.7c2.8,0.8,4.8,1.2,6,1.2
		c1.5,0,3.5-0.5,6-1.6c-1,2.5-2.9,4.4-5.6,5.7c-0.6,0.3-1.1,0.5-1.8,0.7c-0.6,0.2-1.3,0.4-2,0.5c3.3,4.2,5.9,6.4,7.9,6.4
		c0.6,0,1-0.2,1.5-0.6c0.2,1,0.3,2,0.3,3c0,3.7-1.4,5.4-4.1,5.3c-3.5-0.2-7.1-2.9-10.8-8.1c-0.3,0.3-0.6,0.4-0.9,0.4
		s-0.6-0.1-0.8-0.4c-0.2-0.3-0.3-0.6-0.3-0.9c0-0.4,0.2-0.9,0.6-1.4L81.8,30.4z M103.4,8.9l-0.3-0.3L102,9.3
		c-0.3-0.2-0.5-0.4-0.6-0.5c-0.2-0.2-0.3-0.3-0.4-0.4c-0.1-0.1-0.3-0.1-0.4,0.1c-0.1,0.2-0.1,0.3,0.1,0.4c0.2,0.1,0.4,0.2,0.6,0.3
		c0.2,0.1,0.4,0.2,0.6,0.3c-1.2,0.9-2.2,1.6-3,2.1c-0.8,0.6-1.3,1-1.7,1.2c-1.2-0.9-2.5-1.5-3.8-1.8c-0.5-0.1-1-0.2-1.7-0.2
		C90,11,89,11.3,88.9,11.7c0.6-1.8,2-3.1,4-4c0.4-0.2,0.9-0.3,1.3-0.5c0.5-0.1,1-0.2,1.5-0.3c1.9,0.4,3.1,0.7,3.6,1
		c0.2,0.1,0.3,0.1,0.3-0.1c0-0.1,0-0.2-0.1-0.3c-1.2-0.6-2.5-1-3.8-1.1c-1.4,0-2.8,0.4-4.2,1.3c-1.5,1-2.6,2.2-3.2,3.7
		c-1,2.3-1.8,4.3-2.5,5.9c-0.7,1.6-1.2,2.8-1.6,3.7c-1-1.8-1.9-3.6-2.9-5.4c-1-1.8-2-3.5-3-5.3c-1.7-2.9-4-4.4-6.9-4.4
		c-0.3,0-0.5,0-0.8,0.1c-3.4,0.8-4.9,2.3-4.7,4.5c0.3-0.4,0.5-0.7,0.8-1c0.3-0.3,0.6-0.5,1-0.7c0.3-0.1,0.6-0.3,0.9-0.3
		c1.3-0.1,2.3,0.5,3.2,1.8l5.5,9.7c-4.1,0.5-7.2,2.2-9.3,5.2c2.3-0.5,3.9-0.7,4.9-0.7c1.2,0,2.8,0.4,4.8,1c0.2,0.1,0.3,0,0.4-0.1
		c0.2-0.2,0.1-0.3-0.3-0.4c-0.3-0.1-0.6-0.2-0.9-0.3c-0.3-0.1-0.6-0.2-0.9-0.3c-1.3-0.3-2.3-0.4-3.1-0.4c-0.6,0-1.2,0.1-1.8,0.1
		c-0.6,0.1-1.1,0.2-1.6,0.3l-0.1,0.1c1-1.2,2.4-2.2,4.1-3c1.5-0.6,2.9-0.9,4.2-1c1.6,0,4.8,0.6,9.7,2c1.8,0.5,3.5,0.7,5.1,0.7
		c1.1,0,2-0.1,2.5-0.4c-2.5,2.3-5.2,3.5-8.2,3.6c-2.2,0.1-4.1-0.1-5.8-0.7c-0.3-0.1-0.5-0.1-0.7,0c-0.1,0.2,0,0.3,0.3,0.4
		c0,0.3,0.1,0.4,0.2,0.4l0.7,1.1c0,0.3-0.6,1.5-1.7,3.6c-1,1.9-1.7,3.1-2,3.6c-0.7,0.8-1.7,1.2-2.9,1.2c-0.9,0-1.7-0.2-2.4-0.5
		c-1.3-0.6-2.5-0.8-3.5-0.8c-2.2-0.1-3.8,0.9-4.8,2.8c-0.6,1.1-0.9,2.2-0.9,3.5c-0.1,1.5,0.3,2.9,1.2,4.4c1.6,2.6,4.3,3.9,8.2,3.9
		c3.5,0,6.2-0.8,8-2.4c0.3-0.3,0.4-0.4,0.4-0.5l0.4-0.4c0.9-1.1,1.3-2.3,1.5-3.5c0.1-0.6-0.1-1.1-0.4-1.6c-0.3-0.5-0.7-0.8-1.2-0.8
		c-0.5,0-1,0.3-1.4,0.8c-0.4,0.5-0.6,1.1-0.6,1.9c0,1,0.4,2,1,2.9c0.1-0.1,0.2-0.3,0.3-0.4c-0.4-0.6-0.7-1.4-0.8-2.2
		c-0.1-1.5,0.3-2.3,1.2-2.4c0.9,0,1.4,0.6,1.4,1.8c-0.1,1.1-0.6,2.2-1.5,3.3c-0.2,0.1-0.3,0.3-0.5,0.4c-0.1,0.1-0.3,0.3-0.4,0.4
		c-1.8,1.4-4.1,2.1-6.9,2.1c-1.2,0-2.2-0.1-3.2-0.4c-1-0.3-1.8-0.6-2.5-1c-0.7-0.4-1.3-0.9-1.6-1.5c-0.4-0.6-0.6-1.2-0.6-1.8
		c-0.1-1.2,0.3-2,1-2.5c0-0.3-0.2-0.5-0.5-0.4c-0.6,0.5-0.9,1.3-0.9,2.2c0,0.7,0.2,1.6,0.6,2.6c-0.4-0.4-0.9-1.2-1.4-2.6
		c-0.1-0.3-0.2-0.6-0.3-0.9c-0.1-0.3-0.2-0.7-0.3-1.1c-0.2-1.6,0.3-3,1.5-4.3c1.2-1.3,2.4-1.9,3.6-1.8c1.1,0.1,2,0.3,2.6,0.6
		c0.3,0.1,0.5,0.2,0.7,0.3c0.2,0.1,0.5,0.2,0.7,0.3c0.8,0.3,1.5,0.4,2.3,0.4c1.8,0,3-0.9,3.7-2.8c-0.5,3.1-1.7,5.3-3.6,6.6
		c-0.8,0.5-1.7,0.8-2.7,0.9c-0.9-0.1-1.5-0.3-2-0.4c-0.5-0.1-0.9-0.3-1.2-0.4c-0.3-0.1-0.5-0.2-0.7-0.2c-0.1,0-0.2-0.1-0.3-0.1
		c-0.2,0.1-0.3,0.1-0.3,0.2c0,0.1,0.1,0.2,0.4,0.3c0.3,0.1,0.5,0.2,0.6,0.3c1.2,0.7,2.4,0.9,3.7,0.8c2.7-0.2,4.6-2,5.7-5.4l3.6-8.2
		v0.1l1.1,1.8c0.5,0.1,0.7,0,0.5-0.4c-0.4-0.6-0.7-1.1-0.8-1.5l-0.4-0.7c-0.3-0.6-0.6-1-0.8-1.5c1.8,0.4,3.5,0.6,5.3,0.6
		c0.1,0,0.3,0,0.4-0.1c0.5,1.3,1.8,2.9,3.9,4.9c2.2,2.1,4,3.2,5.2,3.2c0.5,0,1-0.1,1.3-0.4c0.1,2.9-0.6,4.6-1.9,5
		c-0.3,0.1-0.7,0.2-1,0.2c-2.6,0-5.8-2.4-9.6-7.3c-0.1-0.3-0.4-0.4-0.7-0.2c-0.1,0.1-0.1,0.4,0.2,0.6c0.6,0.9,1.3,1.7,2,2.5
		c0.7,0.8,1.5,1.5,2.2,2.2c2,1.8,3.9,2.7,5.5,2.7c2.5-0.2,3.7-1.6,3.7-4.2c0-0.6-0.1-1.2-0.3-2.1c-0.3,0.2-0.6,0.3-1,0.3
		c-2.3,0-5.2-2.4-8.9-7.3h-0.1c4.2-0.7,7.2-2.4,8.8-5.3c-0.9,0.7-2.3,1.1-4.1,1.1c-1.5,0-3.1-0.2-4.9-0.7c-0.9-0.3-1.7-0.5-2.5-0.7
		l3.9-9.1c0.5-0.7,1.6-1,3.4-0.9c1.7,0.1,3.3,0.9,4.7,2.2L103.4,8.9z M66.2,37.5c0,0-0.1,0-0.2,0c-0.6,0.3-1,0.7-1.2,1.2
		c-0.2,0.4-0.2,0.9-0.1,1.2c0.1,0.3,0.3,0.5,0.4,0.7c0.1,0.3,0.1,0.5,0,0.7c-0.2,0.3-0.5,0.3-0.7,0.2c-0.4-0.2-0.5-0.4-0.2-0.5
		c0,0,0.1,0,0.1,0.1c0.1-0.1,0.2-0.2,0.2-0.3c-0.1-0.2-0.2-0.2-0.3-0.1c-0.4,0.3-0.4,0.7-0.1,0.9c0.3,0.3,0.6,0.3,0.9,0.1
		c0.4-0.2,0.5-0.5,0.3-0.9c-0.1-0.1-0.1-0.3-0.2-0.3c0-0.1-0.1-0.1-0.1-0.2c0.3,0.1,0.6,0.1,0.7,0c0.3-0.2,0.5-0.4,0.5-0.6
		c0.1-0.4-0.1-0.7-0.4-0.8c-0.2,0.1-0.3,0.2-0.3,0.3c0.2,0.1,0.4,0.2,0.4,0.1c0.1,0.2,0.1,0.4-0.1,0.6c-0.4,0.3-0.7,0.3-0.9-0.1
		c-0.1-0.2-0.2-0.4-0.1-0.6c0.5-0.8,0.9-1.2,1.3-1.4C66.2,37.6,66.2,37.5,66.2,37.5z M75.6,39.4c0.2-0.3,0.3-0.5,0.3-0.7
		c0-0.6-0.4-1.1-1.2-1.6c0.6,0.4,0.9,0.9,0.9,1.5c0,0.2,0,0.4-0.1,0.6c-0.4,0.7-1,1-1.8,1c-0.9,0-1.7-0.4-2.4-1.3
		c0.8,0.8,1.6,1.2,2.3,1.2c0.7,0,1.2-0.3,1.7-0.9c0.1-0.2,0.1-0.4,0.1-0.6c0-0.6-0.4-1.1-1.3-1.4c0.7,0.4,1.1,0.8,1.1,1.4
		c0,0.1,0,0.2-0.1,0.4c-0.3,0.4-0.7,0.7-1.3,0.7c-0.9,0-1.8-0.5-2.6-1.4c0.9,0.8,1.7,1.2,2.4,1.2c0.5,0,0.9-0.2,1.2-0.6
		c0.1-0.6-0.2-1.1-1.2-1.4c0.8,0.4,1.1,0.9,0.9,1.3c-0.2,0.3-0.5,0.5-0.9,0.5c-0.7,0-1.6-0.5-2.5-1.5c0.9,0.9,1.7,1.3,2.3,1.3
		c0.4,0,0.6-0.1,0.8-0.4c0.1-0.3-0.2-0.6-1.1-0.8c0.6,0.3,0.9,0.5,0.8,0.8c-0.2,0.4-0.7,0.4-1.6-0.1c-0.4-0.3-0.6-0.6-0.6-0.9
		c0-0.3,0.1-0.5,0.3-0.8c0.1-0.1,0.1-0.2-0.1-0.3c-0.6-0.1-1-0.1-1.3,0.1c-0.1,0.3-0.3,0.5-0.3,0.6c-0.1,0.2-0.1,0.3-0.1,0.5
		c-0.2-0.3-0.4-0.4-0.5-0.4c-0.1,0-0.5,0-1.1,0c-0.5,0-0.9-0.1-1.1-0.3c-0.1-0.1-0.2-0.1-0.3,0.1c-0.1,0.1-0.1,0.3-0.1,0.5
		c0,0.3,0.1,0.6,0.3,0.8c0,0.1,0.3,0.2,0.7,0.5c-1.3,0.4-1.9,0.9-2,1.3c-0.1,0.8,0.1,1.3,0.9,1.3c0.3,0,0.4-0.1,0.5-0.4
		c0.1-0.3-0.1-0.5-0.4-0.7c-0.1,0-0.2,0-0.2,0.1c0-0.1-0.1-0.2-0.1-0.3c0-0.5,0.4-0.8,1.3-0.9c0.6-0.1,1.2,0,1.8,0.3
		c0.6,0.3,1.2,0.6,1.8,0.9c-0.3-0.3-0.5-0.5-0.8-0.6c-0.2-0.1-0.3-0.3-0.4-0.3c-1-0.7-1.6-1.1-2-1.1c-0.4-0.1-0.7-0.3-0.9-0.7
		c0.4,0.3,0.7,0.4,1,0.4c0.5-0.1,1.1,0.2,1.8,0.9c1,1.2,2,1.7,3,1.7C74.4,40.6,75.1,40.2,75.6,39.4z M83.4,20.9
		c-1.2-2.1-2.1-3.9-3-5.4c-0.8-1.5-1.5-2.6-2-3.5c-2.2-3.6-4.4-5.4-6.8-5.4c-1.1,0-2.1,0.2-3.1,0.7c-1.1,0.5-1.8,1.2-2.1,2.1
		c0.3-0.4,0.7-0.7,1.3-0.9c0.1,0,0.3-0.1,0.4-0.1c0.1,0,0.2,0,0.4-0.1c1-0.1,1.7,0.1,2.2,0.6c0.6,0.5,1.4,1.5,2.3,3.2
		c1.2,2,2.1,3.6,2.9,4.9c0.8,1.3,1.3,2.4,1.8,3.1C78.7,19.9,80.5,20.2,83.4,20.9L83.4,20.9z M81.8,20l-0.3-0.2
		C81,17.1,80,16,78.6,16.2c-0.8,0.1-1.2,0.6-1.2,1.5c0.1,0.5,0.3,0.8,0.6,0.9l0.5,0.2C78.5,18.3,78.6,18,79,18
		c0.4,0,0.6,0.1,0.6,0.5c0.1,0.3-0.1,0.6-0.5,0.8c-0.3,0.1-0.7,0.1-1.2-0.2c-0.4-0.3-0.7-0.7-0.8-1.2c-0.1-1,0.4-1.7,1.5-2
		c0.4-0.1,0.8-0.1,1.1,0.1c-0.4-0.4-0.9-0.5-1.7-0.4c-0.4,0.1-0.7,0.2-0.8,0.3c-0.2,0.1-0.3,0.2-0.4,0.3c-0.1,0.1-0.2,0.2-0.2,0.3
		c0,0.1-0.1,0.1-0.1,0.1c-0.2,0.1-0.3,0-0.3-0.2c0-0.1,0-0.2,0-0.4c0.3-0.5,0.9-0.8,1.8-0.9c-1.1,0.1-2.3-0.5-3.4-1.8
		c-0.1-0.2-0.1-1.2,0-2.9c0-1.2-0.2-1.8-0.8-1.9c-0.5,0-0.8,0.2-0.8,0.7c0,0.3,0.2,0.3,0.6,0.2c0,0.4-0.1,0.6-0.5,0.6
		c-0.4,0-0.6-0.2-0.6-0.7c-0.1-0.6,0.3-1,1.1-1.2c-0.9,0.2-1.5,0.4-1.7,0.5c-0.4,0.1-0.9,0-1.4-0.6c-0.5-0.4-0.9-0.5-1.2-0.3
		c0.1-0.2,0.2-0.3,0.4-0.3c0.3,0,0.6,0.1,1.1,0.4c-0.2-0.6,0.1-0.8,0.7-0.6c-0.4,0-0.6,0.3-0.4,0.7c0.1,0.2,0.4,0.3,0.7,0.2
		c0.7-0.3,1.1-0.4,1.4-0.4c0.6,0,1,0.1,1.3,0.5c0.3,0.4,0.5,0.8,0.4,1.4c0,0.5-0.1,0.9-0.1,1.3c0,0.3,0,0.5-0.1,0.6
		c0.3-1.2,0.6-1.9,0.8-2.1c0.3,0,0.3,0.2,0.1,0.7c-0.4,0.6-0.6,0.9-0.6,1.2c0.5-0.4,0.9-0.6,1.1-0.6c1,0,1.6,0.4,1.7,1.5
		c0,0.7-0.2,1-0.7,1.1c-0.4,0-0.6-0.1-0.6-0.6v-0.2c0.1,0.1,0.1,0.1,0.1,0.2c0.1,0.1,0.3,0.1,0.4,0c0.2,0,0.3-0.2,0.3-0.4
		c0-0.3-0.1-0.5-0.4-0.8c-0.3-0.2-0.6-0.3-1-0.3c-1,0.1-1.4,0.7-1.2,1.8c0.1,0.7,0.6,1.1,1.3,1.3c0.7,0.2,1.5,0.4,2.3,0.5
		c1.2,0.4,2,1,2.4,1.9C81.3,17.5,81.6,18.6,81.8,20z M80,22.6c0,0,0-0.1-0.2-0.3c-0.6-0.4-1.2-0.7-1.8-0.7c-0.7,0-1.3,0.1-2,0.6
		L75.2,23c-0.4,0.3-0.8,0.4-1.2,0.3c-0.6-0.1-0.9-0.4-0.8-0.8c0-0.1,0.1-0.3,0.3-0.4c0.2-0.1,0.3-0.1,0.5,0v0.2
		c0.1,0.3,0.3,0.3,0.6,0.1c0.3-0.2,0.2-0.4-0.1-0.5c-0.3-0.1-0.7-0.2-1.1-0.1c-0.4,0.2-0.6,0.5-0.6,0.8c0,0.7,0.5,1,1.5,1.1
		c0.3,0,0.6-0.1,0.8-0.2c0.5-0.3,0.8-0.6,1-0.8c0.1,0.5,0.3,0.8,0.4,0.9c0.4,0.3,0.8,0.4,1.2,0.3c0.7-0.1,1-0.4,1-0.9
		c-0.1-0.1-0.2-0.3-0.3-0.3c-0.2-0.1-0.3-0.1-0.4,0c-0.1,0.1-0.1,0.2-0.1,0.3c0,0.1,0.1,0.1,0.2,0.2c0.1,0.1,0.1,0.1,0.1,0.2
		c-0.2,0.3-0.5,0.4-0.9,0.2c-0.5-0.1-0.7-0.4-0.7-0.8c0-0.6,0.4-0.9,1.2-0.9c0,0,0.1-0.1,0.2-0.1c0.4,0,1,0.3,1.8,0.8
		C79.8,22.7,80,22.7,80,22.6z M76.5,38.2c0.1,0.3,0,0.6-0.3,0.8c0.1-0.1,0.2-0.3,0.2-0.6c0-0.3-0.2-0.7-0.7-1
		c0.1,0.1,0.3,0.3,0.4,0.4C76.2,37.9,76.3,38.1,76.5,38.2z M76.5,38.2c-0.1-0.4-0.4-0.7-0.8-0.8c0.4,0.3,0.7,0.7,0.7,1
		c0,0.2-0.1,0.4-0.3,0.6C76.4,38.8,76.5,38.5,76.5,38.2z M90.1,25.1c0.1-0.1,0.2-0.3,0.2-0.5c0-0.4-0.5-0.9-1.6-1.5
		c0.7,0.3,1.1,0.7,1.1,1.2c0,0.2-0.1,0.4-0.2,0.6c-0.5,0.7-1.3,1.1-2.3,1.1c-1,0-2-0.4-3-1.2c1,0.7,2,1.1,2.9,1.1
		c0.9,0,1.6-0.3,2.2-1c0.1-0.1,0.2-0.3,0.2-0.4c0-0.5-0.6-0.9-1.8-1.1c1,0.2,1.5,0.6,1.5,1.1c0,0.1-0.1,0.3-0.2,0.4
		c-0.4,0.5-0.9,0.7-1.7,0.7c-1,0-2.1-0.4-3.2-1.3c1.2,0.7,2.2,1.1,3,1.1c0.7,0,1.2-0.2,1.6-0.7c0.2-0.6-0.3-1-1.6-1.1
		c1,0.3,1.4,0.6,1.2,1.1c-0.2,0.3-0.6,0.5-1.2,0.5c-0.9,0-1.9-0.4-3.1-1.3c1.2,0.7,2.1,1.1,2.9,1.1c0.5,0,0.9-0.1,1.1-0.4
		c0.2-0.3-0.3-0.6-1.5-0.8c0.7,0.2,1.1,0.5,1.1,0.7c-0.3,0.4-1,0.4-2-0.1C85.2,24,85,23.7,85,23.4c0-0.3,0.1-0.5,0.4-0.8
		c0.2-0.2,0.1-0.3-0.1-0.3c-0.7-0.1-1.3-0.1-1.7,0.1c-0.3,0.4-0.5,0.8-0.6,1.1c-0.3-0.2-0.5-0.4-0.6-0.4c-0.1,0-0.3,0-0.5,0
		c-0.2,0-0.5,0-0.9,0.1c-0.6,0-1-0.1-1.4-0.3c-0.1-0.1-0.3-0.1-0.3,0.1c-0.1,0.1-0.1,0.3-0.1,0.5c0,0.3,0.1,0.5,0.4,0.7
		c0.1,0,0.2,0.1,0.3,0.2c0.1,0.1,0.3,0.2,0.5,0.3c-1.5,0.4-2.3,0.9-2.5,1.4c-0.2,0.9,0.2,1.3,1.2,1.3c0.3,0,0.6-0.1,0.7-0.4
		c0.1-0.3-0.1-0.5-0.6-0.6h-0.3c0,0-0.1-0.1-0.1-0.3c0-0.4,0.6-0.7,1.7-0.9c0.3,0,0.7,0,1.1,0c0.4,0,0.8,0.1,1.3,0.3
		c0.4,0.1,0.8,0.2,1.2,0.3c0.4,0.1,0.7,0.2,1.1,0.3c-0.9-0.4-1.4-0.7-1.5-0.8c-1.2-0.7-2-1.1-2.6-1c-0.6,0-1-0.2-1.2-0.7
		c0.6,0.3,1,0.4,1.3,0.4c0.7-0.1,1.4,0.2,2.2,0.9c1.3,1,2.5,1.6,3.8,1.6C88.3,26.3,89.2,25.9,90.1,25.1z M81.7,42.8
		c0-1-0.2-1.5-0.7-1.4c-0.6-0.1-0.9,0.4-0.8,1.3c0.1,1,0.4,1.8,0.7,2.4C81.4,44.3,81.7,43.5,81.7,42.8z M93.2,43.4
		c0-0.6-0.3-1.2-0.9-1.8c-0.3-0.2-0.4-0.3-0.4-0.2c0,0.1,0,0.2,0.1,0.3c0.6,0.6,0.8,1.2,0.8,1.6c0,3.1-2.1,4.6-6.1,4.6
		c-2.2,0-3.9-0.5-5-1.5c0,0.1-0.1,0.2-0.3,0.3c1.2,1.1,3,1.7,5.3,1.7c2.6-0.1,4.5-0.8,5.5-2.3C92.8,45.1,93.1,44.3,93.2,43.4z
		 M91.4,33.1c0.2,0.4,0.3,0.8,0.3,1.1c0,0.6-0.2,1-0.7,1.3c-0.3,0.2-0.6,0.3-1,0.3c-1.4,0-2.3-0.9-2.7-2.8c0.6,1.7,1.5,2.6,2.6,2.6
		c0.3,0,0.7-0.1,1-0.3c0.3-0.2,0.5-0.5,0.5-0.9c0-0.4-0.2-0.9-0.7-1.5c0.3,0.5,0.4,1,0.4,1.3c0,0.4-0.1,0.7-0.4,0.9
		c-0.3,0.2-0.5,0.3-0.8,0.3c-1.2,0-2-1-2.5-2.9c0.7,1.7,1.5,2.6,2.4,2.6c0.2,0,0.4-0.1,0.6-0.2c0.2-0.1,0.3-0.3,0.3-0.6
		c0-0.3-0.2-0.8-0.6-1.3c0.3,0.4,0.4,0.8,0.4,1.1c0,0.3-0.1,0.4-0.2,0.5c-0.1,0.1-0.3,0.1-0.4,0.1c-0.9,0-1.7-0.9-2.2-2.8
		c0.6,1.7,1.3,2.5,2.1,2.5c0.3,0,0.5-0.1,0.5-0.3c0-0.3-0.3-0.7-0.8-1.1c0.4,0.6,0.6,1,0.4,1.2c0,0-0.1,0.1-0.2,0.1
		c-0.3,0-0.6-0.2-0.9-0.6c-0.3-0.4-0.5-0.8-0.5-1.1c0-0.5,0.3-0.8,0.8-1.1c0.2-0.1,0.3-0.2,0.1-0.4c-0.5-0.4-0.9-0.7-1.2-0.6
		c-0.5,0.3-0.9,0.6-1,0.8c0.1-0.2,0-0.4-0.2-0.7c-0.1-0.1-0.4-0.3-1.1-0.6c-0.4-0.2-0.7-0.5-0.8-0.9c-0.1-0.4-0.3-0.3-0.6,0.3
		c-0.2,0.3-0.1,0.9,0.3,1.7c-1.3-0.3-2.1-0.2-2.5,0.2c-0.6,0.7-0.5,1.3,0.2,1.7c0.2,0.1,0.4,0.1,0.7-0.1c0.2-0.3,0.2-0.6-0.1-0.9
		c-0.1,0-0.1-0.1-0.2-0.1c0.1-0.7,0.7-0.9,1.7-0.4c0.6,0.3,1.1,0.7,1.6,1.3c0.2,0.3,0.4,0.5,0.6,0.8c0.2,0.3,0.4,0.5,0.6,0.8
		c-0.2-0.4-0.3-0.7-0.4-1c-0.1-0.2-0.2-0.4-0.2-0.5c-0.5-1.2-0.9-1.9-1.3-2.1c-0.4-0.2-0.6-0.6-0.6-1.1c0.3,0.6,0.6,0.9,0.7,0.9
		c0.6,0.1,0.9,0.7,1.2,1.8c0.6,2.3,1.7,3.5,3.2,3.5c0.5,0,0.9-0.1,1.4-0.3c0.4-0.2,0.6-0.6,0.6-1.1C91.9,34.1,91.7,33.6,91.4,33.1z
		 M90.9,24.7c-0.1-0.7-0.6-1.2-1.5-1.3c0.7,0.4,1.1,0.8,1.1,1.3c0,0.4-0.2,0.7-0.7,1.1c0.4-0.1,0.8-0.3,0.9-0.6
		C90.8,24.9,90.9,24.8,90.9,24.7z M92.2,34c0.1,0.3,0.2,0.6,0.2,0.8c0,0.4-0.1,0.8-0.4,1.2c-0.5,0.4-1.1,0.6-1.7,0.6
		c-0.1,0-0.2,0-0.3,0c-0.1,0-0.2,0-0.4-0.1C91.6,36.3,92.5,35.5,92.2,34z M92.7,34.5c0.1,0.3,0.2,0.5,0.2,0.7c0,0.4-0.1,0.7-0.4,1
		c-0.5,0.4-1,0.6-1.5,0.6c-0.2,0-0.4,0-0.7-0.1C92.1,36.6,92.9,35.9,92.7,34.5z M91.5,24.7c0-0.6-0.3-1-0.9-1.2
		c0.4,0.5,0.7,0.9,0.7,1.3c0,0.3-0.2,0.5-0.6,0.7C91.2,25.1,91.5,24.8,91.5,24.7z M93.2,35.2c0.2,1.2-0.5,1.8-2.1,2
		c0.2,0.1,0.4,0.1,0.6,0.1c0.4,0,0.9-0.2,1.3-0.5c0.2-0.3,0.3-0.6,0.3-0.9C93.3,35.6,93.2,35.4,93.2,35.2z M93.7,35.6
		c0.2,1.1-0.5,1.7-2,1.8c0.2,0.1,0.4,0.1,0.6,0.1c0.4,0,0.8-0.2,1.2-0.5C93.8,36.6,93.9,36.2,93.7,35.6z M100.9,7.6
		c0-0.3,0-0.6-0.2-0.8c-0.2-0.2-0.4-0.4-0.7-0.4c-0.2,0-0.4,0.1-0.4,0.4c-0.1,0.3,0.1,0.5,0.4,0.6h0.2c0,0,0.1,0.1,0.1,0.3
		c0,0.4-0.4,0.7-1.2,0.9c-0.5,0.1-1.1,0.1-1.7-0.2c-0.6-0.2-1.2-0.4-1.7-0.6C96,8,96.2,8.1,96.4,8.3c0.2,0.1,0.3,0.2,0.4,0.3
		c0.9,0.6,1.6,0.9,1.9,0.9c0.4,0,0.7,0.1,0.9,0.6c-0.4-0.3-0.7-0.4-0.9-0.3C98.2,9.8,97.6,9.6,97,9c-0.9-0.9-1.8-1.3-2.6-1.3
		c-0.9,0-1.6,0.4-2.1,1.2c-0.1,0.2-0.2,0.4-0.2,0.6c0,0.6,0.4,1,1.1,1.3c-0.8-0.4-1-0.9-0.7-1.7c0.3-0.7,0.9-1.1,1.8-1.1
		c0.7,0,1.4,0.4,2.1,1.1c-0.7-0.6-1.4-0.9-2.1-0.9c-0.7,0-1.2,0.3-1.6,1c-0.1,0.1-0.1,0.3-0.1,0.4c0,0.6,0.4,1,1.3,1.3
		c-1-0.4-1.3-0.9-1-1.7c0.3-0.5,0.7-0.7,1.3-0.7c0.7,0,1.5,0.4,2.3,1.2c-0.9-0.6-1.6-0.9-2.1-0.9c-0.6,0-0.9,0.2-1.2,0.7
		c-0.1,0.6,0.2,1,1.2,1.2c-0.7-0.4-1-0.8-0.9-1.2c0.1-0.3,0.4-0.5,0.9-0.5c0.6,0,1.3,0.4,2.2,1.2C95.7,9.3,95,9,94.4,9
		c-0.4,0-0.7,0.1-0.8,0.4c0,0.1,0.3,0.4,1.1,0.7c-0.6-0.2-0.9-0.4-0.8-0.6C94,9,94.5,9,95.3,9.4c0.4,0.2,0.6,0.5,0.6,0.9
		c0,0.2-0.1,0.5-0.2,0.7c-0.1,0.1-0.1,0.2,0.1,0.3c0.6,0.1,0.9,0,1.2-0.1c0.3-0.5,0.4-0.9,0.4-1.2c0.1,0.2,0.3,0.3,0.5,0.4
		c0.1,0,0.4,0,1-0.1c0.4-0.1,0.8,0,1.1,0.2c0.1,0.1,0.1,0,0.2-0.1c0.1-0.1,0.1-0.3,0.1-0.4c-0.1-0.3-0.2-0.5-0.3-0.7
		c-0.1-0.1-0.3-0.2-0.7-0.4C100.2,8.6,100.8,8.1,100.9,7.6z M94.2,36.1c0.2,1-0.4,1.5-1.7,1.6c0.2,0.1,0.4,0.1,0.5,0.1
		c0.4,0,0.7-0.2,1.1-0.5C94.3,36.9,94.4,36.5,94.2,36.1z M94.8,36.4c0.2,1-0.4,1.6-1.7,1.6c0.2,0.1,0.4,0.1,0.5,0.1
		c0.4,0,0.7-0.2,1.1-0.5C94.9,37.3,95,36.9,94.8,36.4z M95.3,36.9c0.2,0.9-0.3,1.4-1.5,1.5c0.1,0.1,0.3,0.1,0.4,0.1
		c0.3,0,0.7-0.1,1-0.4C95.5,37.8,95.5,37.4,95.3,36.9z M95.9,37.3c0.1,0.8-0.3,1.2-1.4,1.3c0.4,0.1,0.8,0.1,1.3-0.3
		C96,38.1,96.1,37.8,95.9,37.3z"/>
</g>
</svg>
