<?xml version="1.0" encoding="utf-8"?>
<!-- Generator: Adobe Illustrator 19.2.1, SVG Export Plug-In . SVG Version: 6.00 Build 0)  -->
<svg version="1.1" id="Layer_1" xmlns="http://www.w3.org/2000/svg" xmlns:xlink="http://www.w3.org/1999/xlink" x="0px" y="0px"
	 viewBox="0 0 99.8 30.8" style="enable-background:new 0 0 99.8 30.8;" xml:space="preserve">
<style type="text/css">
	.st0{fill:#231F20;}
	.st1{enable-background:new    ;}
</style>
<title>metalXchange Logo</title>
<path class="st0" d="M13.3,19.8c-0.4,0.2-0.7,0.4-1,0.8c-0.1,0.1-0.2,0.2-0.3,0.4c-0.1,0.2-0.3,0.4-0.4,0.7
	c-0.1-0.2-0.2-0.4-0.3-0.6l-0.1,0.1c0,0,0,0.1-0.1,0.1c-0.2-0.3-0.3-0.6-0.4-0.7c-0.1-0.2-0.2-0.3-0.3-0.4C10.2,20.2,10.1,20,10,20
	c-0.1-0.1-0.2-0.1-0.3-0.2c-0.2,0.1-0.4,0.2-0.6,0.4c-0.2,0.1-0.3,0.3-0.4,0.4c-0.1,0.1-0.2,0.2-0.3,0.4c-0.1,0.2-0.3,0.4-0.4,0.7
	c-0.1-0.1-0.1-0.2-0.2-0.3c-0.1-0.1-0.1-0.2-0.2-0.2l-0.1,0.1c0,0,0,0.1-0.1,0.1c-0.2-0.3-0.3-0.6-0.4-0.8c-0.1-0.2-0.2-0.3-0.3-0.4
	l0,0c-0.1-0.1-0.2-0.2-0.3-0.2c-0.1-0.1-0.2-0.1-0.3-0.2C6,19.9,5.8,20,5.7,20.2c-0.2,0.1-0.3,0.3-0.4,0.4C5.1,20.7,5,20.8,4.9,21
	c-0.1,0.2-0.3,0.4-0.4,0.7c-0.1-0.1-0.1-0.2-0.2-0.3c-0.1-0.1-0.1-0.2-0.2-0.3L4,21.2c0,0,0,0.1-0.1,0.1c-0.2-0.3-0.3-0.5-0.4-0.7
	c-0.1-0.2-0.2-0.3-0.3-0.4C3.1,20,3,20,2.9,19.9c-0.1-0.1-0.3-0.2-0.4-0.2c0,0,0.1,0,0.1-0.1c0,0,0.1,0,0.1-0.1
	c-0.2-0.1-0.4-0.2-0.6-0.3c0.4-0.2,0.7-0.4,0.8-0.7C3,18.4,3,18,3,17.6v-2.1c0-0.1,0-0.3-0.1-0.4s-0.1-0.3-0.2-0.4
	c-0.1-0.1-0.1-0.1-0.1-0.1c-0.1,0-0.1-0.1-0.1-0.1h0.1c0,0,0,0,0.1,0c-0.2-0.2-0.3-0.3-0.5-0.4c0.5-0.3,0.9-0.5,1.1-0.8
	c0.1-0.1,0.2-0.3,0.3-0.5c0.1-0.2,0.2-0.4,0.3-0.8C3.9,12.3,4,12.4,4,12.5c0.1,0.1,0.1,0.2,0.2,0.3c0.1-0.1,0.1-0.2,0.1-0.2
	C4.5,13,4.8,13.4,5,13.8C5.2,13.9,5.4,14,5.7,14c0.6,0,1.1-0.6,1.7-1.8c0.1,0.1,0.1,0.2,0.2,0.3c0.1,0.1,0.1,0.2,0.2,0.3l0.1-0.2
	c0.2,0.5,0.5,0.9,0.7,1.2C8.8,14,9,14.1,9.2,14.1c0.6,0,1.1-0.6,1.7-1.8c0.1,0.1,0.1,0.2,0.2,0.3c0.1,0.1,0.1,0.2,0.2,0.3
	c0-0.1,0.1-0.1,0.1-0.1s0.1-0.1,0.1-0.1c0.2,0.3,0.3,0.5,0.4,0.7c0.1,0.2,0.2,0.3,0.2,0.4c0.2,0.2,0.5,0.3,0.8,0.5l-0.2,0.1
	c0.1,0.1,0.2,0.1,0.3,0.2s0.2,0.1,0.3,0.2c-0.6,0.3-1,0.7-1,1.3v2.1c0,0.4,0.1,0.8,0.1,1c0,0.1,0,0.1,0.1,0.1
	c0.1,0.1,0.1,0.1,0.2,0.1v0.2c0.1,0.1,0.2,0.2,0.4,0.3v-0.1H13.3z M12.2,18.6c-0.1-0.2-0.1-0.5-0.1-1v-2.1c0-0.7,0.3-1.1,0.8-1.3
	c-0.5-0.2-0.8-0.5-1.1-0.7c-0.1-0.1-0.3-0.5-0.6-1.1c-0.6,1.2-1.2,1.7-1.7,1.7c-0.6,0-1.2-0.6-1.7-1.7c-0.6,1.2-1.2,1.7-1.7,1.7
	s-1.2-0.6-1.7-1.7C4.2,12.6,4,12.8,3.9,13c-0.1,0.1-0.2,0.3-0.3,0.4c-0.2,0.2-0.6,0.5-1,0.7c0.2,0.1,0.4,0.3,0.6,0.6
	c0.1,0.3,0.2,0.6,0.2,0.8v2.1c0,0.4-0.1,0.8-0.1,1c-0.1,0.3-0.3,0.5-0.7,0.7c0.4,0.2,0.7,0.5,1,0.8c0.1,0.1,0.2,0.2,0.3,0.4
	c0.1,0.2,0.2,0.4,0.4,0.7c0.3-0.6,0.6-0.9,0.7-1.1c0.3-0.3,0.6-0.6,1-0.8c-0.4-0.2-0.6-0.4-0.7-0.7c-0.1-0.2-0.1-0.5-0.1-1v-2.1
	c0-0.3,0.1-0.6,0.2-0.8c0.2-0.3,0.4-0.4,0.7-0.4c0.3,0,0.5,0.1,0.7,0.4c0.1,0.2,0.2,0.5,0.2,0.8v2.1c0,0.5-0.1,0.8-0.1,1
	C6.6,19,6.4,19.2,6,19.4c0.4,0.2,0.7,0.5,1,0.8c0.1,0.1,0.2,0.2,0.3,0.4c0.1,0.2,0.2,0.4,0.4,0.7c0.3-0.6,0.6-0.9,0.7-1.1
	c0.3-0.3,0.6-0.6,1-0.8C9,19.2,8.7,19,8.6,18.7c-0.1-0.2-0.1-0.5-0.1-1v-2.1c0-0.3,0.1-0.6,0.2-0.8c0.2-0.3,0.4-0.4,0.7-0.4
	s0.5,0.1,0.7,0.4c0.1,0.2,0.2,0.5,0.2,0.8v2.1c0,0.5-0.1,0.8-0.1,1c-0.1,0.3-0.3,0.5-0.7,0.7c0.4,0.2,0.7,0.5,1,0.8
	c0.2,0.2,0.4,0.6,0.7,1.1c0.3-0.6,0.6-0.9,0.7-1.1c0.3-0.3,0.6-0.6,1-0.8C12.5,19.1,12.2,18.9,12.2,18.6z M5.8,19.2
	c0.1,0,0.1,0.1,0.1,0.1c0.3-0.2,0.6-0.4,0.7-0.6c0.1-0.2,0.1-0.5,0.1-1v-2.1c0-0.3-0.1-0.5-0.2-0.7c-0.1-0.1-0.1-0.1-0.2-0.1
	c-0.3,0-0.4,0.1-0.6,0.4c-0.1,0.2-0.2,0.5-0.2,0.8v2.1c0,0.4,0.1,0.8,0.1,1v0.1l0,0C5.7,19.1,5.8,19.1,5.8,19.2z M5.9,19.4L5.9,19.4
	c0.1,0.1,0.2,0.2,0.4,0.3C6.2,19.6,6.1,19.5,5.9,19.4z M9.3,19.2c0.1,0,0.1,0.1,0.1,0.1c0.3-0.2,0.6-0.4,0.7-0.6
	c0.1-0.2,0.1-0.5,0.1-1v-2.1c0-0.3-0.1-0.5-0.2-0.7c-0.1-0.1-0.1-0.1-0.2-0.1c-0.3,0-0.4,0.1-0.6,0.4C9.1,15.5,9,15.7,9,16v2.1
	c0,0.4,0.1,0.8,0.1,1v0.1l0,0C9.2,19.1,9.2,19.1,9.3,19.2z M9.4,19.4L9.4,19.4c0.1,0.1,0.2,0.2,0.4,0.3C9.7,19.6,9.6,19.5,9.4,19.4z
	"/>
<path class="st0" d="M19.5,19.8c-0.5,0.1-1,0.3-1.6,0.6c-0.3,0.2-0.5,0.4-0.7,0.6c-0.2,0.2-0.4,0.4-0.6,0.7
	c-0.1-0.1-0.1-0.2-0.2-0.3c-0.1-0.1-0.1-0.2-0.2-0.3l-0.1,0.1c-0.1-0.2-0.2-0.3-0.3-0.5c-0.1-0.1-0.2-0.2-0.3-0.2
	c-0.1-0.1-0.2-0.1-0.3-0.2c-0.5-0.3-1.2-0.6-2-0.7c0.1-0.1,0.1-0.1,0.2-0.1s0.1-0.1,0.2-0.1c-0.1-0.1-0.3-0.1-0.4-0.1
	c-0.1-0.1-0.3-0.1-0.4-0.1c0.3-0.2,0.6-0.3,0.8-0.6c0.2-0.3,0.3-0.5,0.3-0.8v-2c0-0.4-0.1-0.8-0.3-1.2c-0.1,0-0.1-0.1-0.1-0.1
	c-0.1,0-0.1-0.1-0.1-0.1v-0.1c-0.1-0.1-0.3-0.2-0.4-0.3l0.1-0.1c0.8,0,1.6-0.2,2.3-0.4c0.8-0.3,1.4-0.8,1.8-1.5
	c0.1,0.1,0.1,0.2,0.2,0.3c0.1,0.1,0.1,0.2,0.2,0.3l0.1-0.1c0-0.1,0.1-0.1,0.1-0.1c0.1,0.2,0.2,0.4,0.3,0.7c0.1,0.2,0.2,0.3,0.3,0.4
	c0.1,0.1,0.2,0.2,0.4,0.2c0.1,0.1,0.3,0.2,0.4,0.2l-0.1,0.1L19,14.3c0.2,0.1,0.4,0.2,0.6,0.3c-0.2,0.2-0.3,0.3-0.4,0.5
	c-0.1,0.2-0.2,0.4-0.3,0.7c-0.1,0.3-0.2,0.6-0.2,0.7c-0.1,0.2-0.2,0.4-0.3,0.5c-0.4,0.4-1.1,0.8-2,1v0.2v0.1c0,0.3,0.1,0.5,0.2,0.7
	c0.1,0.1,0.3,0.1,0.4,0.2c0.3,0.1,0.9,0.2,1.7,0.2h0.3v0.2c-0.2,0-0.3,0.1-0.4,0.1c-0.2,0.1-0.3,0.1-0.4,0.2c0.1,0,0.3,0.1,0.4,0.1
	c0.2,0,0.3,0,0.5,0h0.3L19.5,19.8L19.5,19.8z M17.1,19.2C16.4,19,16,18.5,16,17.8v-0.3c1-0.2,1.6-0.6,2-1c0.2-0.2,0.3-0.6,0.5-1.2
	c0.2-0.6,0.3-1,0.6-1.2c-0.4-0.2-0.8-0.4-1.1-0.8c-0.1-0.1-0.2-0.3-0.3-0.4c-0.1-0.2-0.2-0.4-0.4-0.7c-0.4,0.6-1.1,1.1-1.8,1.5
	c-0.7,0.3-1.5,0.4-2.3,0.4c0.7,0.3,1,1,1,1.8v2c0,0.3-0.1,0.6-0.3,0.8c-0.2,0.3-0.4,0.4-0.7,0.6c0.7,0.2,1.2,0.3,1.8,0.7
	c0.6,0.3,1.1,0.8,1.3,1.2c0.3-0.5,0.7-0.9,1.2-1.3s1.1-0.6,1.6-0.6C18.1,19.4,17.5,19.3,17.1,19.2z M17,16.7c-0.3,0.2-0.6,0.4-1,0.4
	v-3.1c0.3,0,0.6,0.2,0.9,0.7c0.3,0.4,0.5,0.8,0.5,1.1C17.4,16.2,17.2,16.5,17,16.7z M16.9,14.7L16.9,14.7c-0.1-0.1-0.1-0.1-0.1-0.1
	c-0.1-0.1-0.2-0.1-0.3-0.1v2.4c0.2-0.1,0.3-0.2,0.4-0.3c0.3-0.2,0.4-0.5,0.4-0.8C17.4,15.5,17.2,15.2,16.9,14.7z M16.8,17.4
	c-0.1,0-0.1,0-0.1,0.1C16.7,17.4,16.7,17.4,16.8,17.4c0.1,0,0.1,0,0.1-0.1C16.9,17.4,16.8,17.4,16.8,17.4z"/>
<path class="st0" d="M23.6,16v-0.4v-0.1h-0.4v-0.4c0-0.1,0-0.1,0-0.2c0-0.1,0-0.1,0-0.1c0-0.2,0-0.3-0.1-0.4
	c-0.1-0.1-0.3-0.1-0.4-0.1V18c0,0.6,0.1,1,0.3,1.3c0.1,0,0.1,0.1,0.1,0.1c0.1,0,0.1,0.1,0.1,0.1l-0.1,0.1c0.1,0.2,0.3,0.3,0.5,0.4
	c-0.6,0.3-1,0.6-1.2,0.8l0,0c-0.1,0.1-0.3,0.3-0.4,0.4c-0.1,0.2-0.3,0.4-0.4,0.7c-0.1-0.1-0.1-0.2-0.2-0.3c-0.1-0.1-0.1-0.2-0.2-0.3
	c0,0,0,0.1-0.1,0.1c0,0,0,0.1-0.1,0.1c-0.1-0.2-0.2-0.3-0.3-0.5c-0.1-0.2-0.2-0.3-0.3-0.4c-0.1-0.1-0.3-0.2-0.4-0.3
	c-0.2-0.1-0.3-0.2-0.6-0.3l0.1-0.1c0.1,0,0.1,0,0.1-0.1c-0.1-0.1-0.2-0.1-0.3-0.2c-0.1-0.1-0.2-0.1-0.3-0.2c0.4-0.2,0.7-0.5,0.8-0.8
	c0.1-0.3,0.1-0.6,0.1-1.1v-3.1h-0.7v-0.4h-0.4V13h1.1v-1.6c0-0.2-0.1-0.3-0.2-0.4c-0.1-0.1-0.2-0.1-0.2-0.2
	c-0.1-0.1-0.1-0.1-0.2-0.2l0.1-0.1c-0.1-0.1-0.2-0.1-0.2-0.2c-0.1-0.1-0.2-0.1-0.2-0.2l0.1-0.1c0.3-0.1,0.6-0.1,1.1-0.2l0,0
	c0.2-0.1,0.3-0.2,0.6-0.3c0.2-0.2,0.5-0.3,0.8-0.6c0.6-0.4,1.1-0.7,1.7-0.7v0.4c-0.2,0.1-0.4,0.2-0.6,0.4c0.3-0.2,0.7-0.3,1.1-0.3
	v0.4c-0.9,0.3-1.3,1.2-1.3,2.8v1.2c0.2-0.1,0.3-0.1,0.3-0.2c0.1-0.1,0.1-0.4,0.1-1h0.5v0.4h0.4v3.5h-0.5V16z M23.6,15.5v-3.4h-0.3
	c0,0.5-0.1,0.8-0.1,0.9c-0.1,0.1-0.4,0.2-0.9,0.2v-1.7c0-1.6,0.4-2.6,1.3-2.9V8.5c-0.5,0.1-1.1,0.3-1.6,0.7
	c-0.3,0.2-0.6,0.4-0.8,0.6c-0.2,0.2-0.4,0.3-0.6,0.3c-0.5,0.1-0.8,0.2-1.1,0.2l0,0c0.1,0.1,0.2,0.1,0.2,0.2c0.1,0.1,0.2,0.1,0.2,0.2
	c0.3,0.3,0.4,0.6,0.4,0.8v1.7h-1.1v0.7h1.1v3.6c0,0.5-0.1,0.8-0.1,1.1c-0.1,0.3-0.4,0.6-0.7,0.8c0.6,0.3,0.9,0.5,1.1,0.7
	c0.2,0.2,0.4,0.6,0.7,1.1c0.1-0.2,0.3-0.4,0.4-0.6c0.1-0.2,0.2-0.3,0.4-0.4c0.2-0.2,0.6-0.4,1.1-0.7c-0.6-0.3-0.9-0.9-0.9-1.9V14
	c0.4,0,0.7,0.1,0.8,0.2c0.2,0.1,0.2,0.4,0.2,0.8c0,0.1,0,0.1,0,0.1c0,0.1,0,0.1,0,0.2v0.3C23.4,15.5,23.6,15.5,23.6,15.5z"/>
<path class="st0" d="M31.3,19.9c-0.4,0.2-0.7,0.4-1,0.7c-0.2,0.2-0.4,0.6-0.7,1.2c-0.1-0.1-0.1-0.2-0.2-0.3
	c-0.1-0.1-0.1-0.2-0.2-0.3c-0.1,0.1-0.1,0.1-0.1,0.2c-0.2-0.4-0.4-0.7-0.6-1c-0.2-0.2-0.5-0.3-0.7-0.3c-0.6,0-1.2,0.6-1.8,1.7
	c-0.1-0.1-0.1-0.2-0.2-0.3c-0.1-0.1-0.1-0.2-0.2-0.3c0,0.1-0.1,0.1-0.1,0.2c-0.3-0.6-0.5-1-0.6-1.1c-0.2-0.2-0.4-0.3-0.7-0.5h0.1
	c0.1,0,0.1,0,0.1-0.1c-0.1-0.1-0.2-0.1-0.3-0.2c-0.1-0.1-0.2-0.1-0.3-0.2c0.6-0.2,1-0.7,1-1.5c0-0.6-0.2-1-0.4-1.3l0.1-0.2
	c0.3,0.2,0.7,0.3,0.9,0.3s0.4-0.1,0.7-0.2c-0.1-0.1-0.1-0.2-0.2-0.3c-0.1-0.1-0.1-0.2-0.2-0.3L25.5,16c0,0.1,0,0.1-0.1,0.1
	c-0.2-0.3-0.3-0.6-0.4-0.7c-0.1-0.2-0.2-0.3-0.3-0.4c-0.1-0.1-0.2-0.2-0.3-0.2c-0.1-0.1-0.2-0.1-0.4-0.2c0,0,0.1,0,0.1-0.1
	c0,0,0.1,0,0.1-0.1c-0.2-0.1-0.3-0.2-0.6-0.3c0.6-0.3,1-0.6,1.1-0.8c0.1-0.1,0.1-0.2,0.2-0.4c0.1-0.2,0.2-0.5,0.4-0.8
	c0.1,0.1,0.1,0.2,0.2,0.3s0.1,0.2,0.2,0.3c0.1-0.1,0.1-0.2,0.1-0.2c0.3,0.6,0.5,1,0.7,1.3c0.2,0.2,0.4,0.2,0.6,0.2
	c0.6,0,1.1-0.6,1.7-1.9c0.1,0.1,0.1,0.2,0.2,0.3s0.1,0.2,0.2,0.3c0-0.1,0.1-0.1,0.1-0.1c0-0.1,0.1-0.1,0.1-0.1
	c0.1,0.3,0.2,0.5,0.3,0.7c0.1,0.2,0.2,0.3,0.3,0.5c0.2,0.2,0.5,0.3,0.8,0.5c-0.1,0-0.1,0.1-0.1,0.1c0,0-0.1,0-0.1,0.1
	c0.2,0.1,0.3,0.2,0.6,0.3c-0.3,0.1-0.5,0.3-0.7,0.6c-0.2,0.3-0.3,0.5-0.3,0.8V18c0,0.4,0.1,0.7,0.1,1c0,0.1,0,0.1,0.1,0.1
	c0.1,0.1,0.1,0.1,0.2,0.1v0.3l0,0c0.1,0.1,0.2,0.2,0.4,0.3v0.1H31.3z M30.1,18.8c-0.1-0.2-0.1-0.6-0.1-1v-2.2c0-0.3,0.1-0.6,0.2-0.8
	c0.2-0.3,0.4-0.4,0.6-0.6c-0.4-0.2-0.8-0.5-1.1-0.8c-0.2-0.2-0.4-0.6-0.6-1.1c-0.6,1.2-1.1,1.8-1.7,1.8s-1.2-0.6-1.8-1.8
	c-0.1,0.3-0.3,0.6-0.3,0.7c-0.1,0.2-0.2,0.3-0.2,0.4c-0.2,0.3-0.6,0.6-1,0.8c0.4,0.2,0.8,0.5,1,0.7c0.1,0.1,0.3,0.4,0.6,1.1
	c0.6-1.1,1.2-1.6,1.7-1.6c0.2,0,0.4,0.1,0.6,0.3c0.2,0.2,0.2,0.4,0.2,0.6v1.1c-0.3-0.3-0.6-0.4-0.9-0.4c-0.2,0-0.5,0.2-0.9,0.4
	c-0.4,0.3-0.7,0.4-1.1,0.4c-0.3,0-0.6-0.1-0.9-0.2c0.3,0.3,0.5,0.7,0.5,1.3c0,0.8-0.3,1.3-0.8,1.5c0.4,0.2,0.7,0.5,1,0.8
	c0.1,0.2,0.3,0.5,0.6,1.1c0.6-1.1,1.2-1.6,1.8-1.6c0.6,0,1.2,0.6,1.7,1.6c0.3-0.5,0.5-0.8,0.7-1.1c0.2-0.3,0.6-0.5,1-0.8
	C30.5,19.3,30.2,19,30.1,18.8z M28,14.9c-0.1-0.1-0.1-0.1-0.2-0.1c-0.6,0-1.1,0.6-1.7,1.7c0.1,0,0.1-0.1,0.1-0.1
	c0.1-0.1,0.1-0.1,0.1-0.1c0.4-0.3,0.7-0.4,1-0.4c0.3,0,0.5,0.1,0.8,0.3v-1C28.1,15.2,28.1,15.1,28,14.9z M28.2,18.1
	c0,0.8-0.3,1.2-0.8,1.2c-0.3,0-0.6-0.2-0.7-0.5c-0.1-0.2-0.1-0.5-0.1-1c0-1,0.2-1.5,0.7-1.5c0.3,0,0.6,0.2,0.8,0.7L28.2,18.1
	L28.2,18.1z M28.1,17.1L28.1,17.1C28,17,28,17,28,17c-0.1-0.1-0.2-0.1-0.2-0.1c-0.4,0-0.6,0.4-0.6,1.3c0,0.4,0,0.7,0.1,1l0,0v0.1
	c0.1,0,0.1,0,0.2,0c0.4,0,0.7-0.4,0.7-1.2V17.1z"/>
<path class="st0" d="M35.8,9.2c-0.4,0.1-0.8,0.5-1,1.1c-0.2,0.5-0.3,1.1-0.3,1.6v6c0,0.4,0.1,0.8,0.2,1V19c0.1,0.1,0.3,0.2,0.4,0.2
	c-0.1,0.1-0.1,0.1-0.2,0.1c0.2,0.1,0.3,0.2,0.6,0.3c-0.3,0.2-0.5,0.3-0.7,0.4c-0.2,0.2-0.3,0.3-0.5,0.4c-0.2,0.2-0.4,0.6-0.8,1.2
	c-0.1-0.1-0.1-0.2-0.2-0.3c-0.1-0.1-0.1-0.2-0.2-0.3c0,0-0.1,0.1-0.1,0.2c-0.2-0.2-0.3-0.4-0.4-0.7c-0.1-0.2-0.2-0.3-0.3-0.5
	c-0.1-0.1-0.2-0.2-0.4-0.3s-0.3-0.2-0.4-0.3c0,0,0.1,0,0.1-0.1c0,0,0.1,0,0.1-0.1c-0.1-0.1-0.2-0.1-0.3-0.2
	c-0.1-0.1-0.2-0.1-0.3-0.2c0.4-0.2,0.7-0.4,0.8-0.7c0.1-0.2,0.1-0.6,0.1-1v-1.8c0-0.6-0.1-1-0.4-1.3l-0.1-0.1
	c-0.1,0-0.1-0.1-0.1-0.1l0.1-0.1c-0.1-0.1-0.1-0.2-0.2-0.2c-0.1-0.1-0.2-0.1-0.3-0.2c0.4-0.3,0.7-0.6,0.8-0.8
	c0.1-0.2,0.1-0.6,0.1-1.1s-0.1-0.9-0.3-1.2c-0.1-0.1-0.1-0.1-0.2-0.1l0.1-0.2c-0.1-0.1-0.3-0.2-0.4-0.3l0.1-0.2c0.1,0,0.1,0,0.2,0
	c0.1,0,0.1,0,0.2,0c0.5,0,1.2-0.3,1.9-0.8c0.4-0.3,0.8-0.6,1.1-0.7c0.3-0.2,0.6-0.3,0.9-0.3v0.3l-0.1,0.3c-0.2,0.1-0.4,0.2-0.6,0.4
	C35,9.1,35.2,9,35.4,9c0.2-0.1,0.3-0.1,0.5-0.2v0.3L35.8,9.2z M35.4,8.5c-0.4,0.1-1.1,0.4-1.9,1c-0.8,0.6-1.4,0.8-2,0.8
	c-0.1,0-0.1,0-0.2,0s-0.1,0-0.2,0c0.6,0.2,0.9,0.8,0.9,1.8c0,0.5-0.1,0.9-0.1,1.1c-0.1,0.3-0.4,0.6-0.8,0.8c0.6,0.3,0.9,1,0.9,1.8
	v1.8c0,0.4-0.1,0.8-0.1,1c-0.1,0.3-0.3,0.5-0.7,0.7c0.4,0.2,0.8,0.5,1.1,0.8c0.1,0.1,0.2,0.3,0.3,0.4c0.1,0.2,0.3,0.4,0.4,0.7
	c0.3-0.5,0.6-0.9,0.7-1.1c0.1-0.2,0.3-0.3,0.4-0.4c0.2-0.2,0.4-0.3,0.6-0.4c-0.4-0.2-0.6-0.4-0.7-0.7c-0.1-0.2-0.2-0.6-0.2-1v-6.1
	c0-0.6,0.1-1.1,0.3-1.7c0.3-0.7,0.6-1.1,1.1-1.2V8.5H35.4z"/>
<g class="st1">
	<path class="st0" d="M60.6,19.8c-0.3,0-0.8,0.2-1.5,0.7c-0.2,0.2-0.7,0.6-1.3,1.2c-0.1-0.1-0.1-0.2-0.2-0.2
		c-0.1-0.1-0.1-0.2-0.2-0.2l-0.1,0.1c-0.1-0.1-0.1-0.1-0.1-0.1c-0.1-0.1-0.1-0.1-0.1-0.1C57,21,56.9,21,56.7,20.9
		c-0.1-0.1-0.3-0.2-0.4-0.3c-0.7-0.4-1.2-0.7-1.6-0.7v-0.2c0.1,0,0.2,0,0.3-0.1c-0.1-0.1-0.2-0.1-0.4-0.1c-0.1,0-0.2-0.1-0.3-0.1
		v-0.2c0.3,0,0.4-0.2,0.6-0.6c0.2-0.3,0.2-0.7,0.2-1v-1.8c0-0.5-0.1-0.9-0.3-1.2c-0.1,0-0.1-0.1-0.1-0.1c-0.1,0-0.1-0.1-0.1-0.1
		v-0.1c-0.1-0.1-0.1-0.1-0.2-0.2c-0.1-0.1-0.2-0.1-0.2-0.2l0.1-0.1c1.9,0,3.3-0.7,4.2-2c0.1,0.1,0.1,0.2,0.2,0.3
		c0.1,0.1,0.1,0.2,0.2,0.3l0.1-0.1l0.1-0.1c0.2,0.4,0.4,0.8,0.6,1.1c0.1,0.1,0.3,0.2,0.4,0.3c0.2,0.1,0.3,0.2,0.5,0.3
		c-0.1,0.1-0.2,0.1-0.2,0.1c0.1,0.1,0.2,0.1,0.3,0.2c0.1,0.1,0.2,0.1,0.3,0.2c-0.4,0.2-0.8,0.7-1.1,1.4c-0.1,0.3-0.2,0.6-0.3,0.9
		c-0.1,0.3-0.1,0.6-0.2,0.9h-0.2c0-0.2-0.1-0.3-0.1-0.5c0-0.2-0.1-0.3-0.1-0.4c0,0.1-0.1,0.2-0.1,0.3c0,0.1,0,0.2-0.1,0.3h-0.2
		c-0.1-0.7-0.2-1.4-0.4-2c-0.1-0.2-0.1-0.3-0.2-0.4c-0.1-0.1-0.1-0.2-0.2-0.3c-0.1,0-0.1-0.1-0.2-0.1c-0.1,0-0.1,0-0.1-0.1v3.5
		c0,0.3,0.1,0.6,0.2,0.8c0.5,0.3,1.3,0.5,2.4,0.5v0.2c-0.1,0-0.2,0.1-0.3,0.1s-0.2,0.1-0.3,0.1c0.2,0,0.3,0.1,0.5,0.1
		c0.2,0,0.3,0,0.6,0V19.8z M57.1,17.6v-3.5c0.4-0.1,0.8,0.4,1.2,1.3c0.2,0.6,0.3,1.2,0.4,1.9h0.1c0.1-0.3,0.1-0.6,0.2-0.8
		c0.1-0.3,0.2-0.6,0.3-0.8c0.3-0.7,0.6-1.2,1-1.3c-0.4-0.2-0.8-0.4-1.1-0.8c-0.1-0.1-0.2-0.3-0.3-0.4s-0.2-0.4-0.4-0.7
		c-0.8,1.2-2.2,1.9-4.1,1.9c0.7,0.3,1,1,1,1.8v1.8c0,0.3-0.1,0.7-0.2,1c-0.2,0.4-0.4,0.6-0.7,0.6c0.4,0,1,0.2,1.7,0.7
		c0.7,0.4,1.2,0.8,1.4,1.2c0.6-0.6,1.1-1,1.3-1.2c0.6-0.4,1.1-0.7,1.5-0.7C58.1,19.4,57.1,18.8,57.1,17.6z"/>
	<path class="st0" d="M68,19.8c-0.4,0.2-0.7,0.7-0.9,1.4c-0.2,1-0.4,1.6-0.6,1.8c-0.4,0.7-1.3,1.2-2.6,1.6v-0.4
		c0.2-0.1,0.4-0.2,0.6-0.3c-0.3,0.1-0.6,0.2-1,0.3v-0.4c0.8-0.2,1.2-0.9,1.2-2v-6.6c0-0.1,0-0.1-0.1-0.2c0,0-0.1,0-0.1-0.1
		c-0.3-0.1-0.5-0.2-0.8-0.2h-0.2V18c0,0.4,0.1,0.8,0.2,1v0.1c0.1,0.1,0.3,0.2,0.4,0.2c-0.1,0-0.1,0.1-0.1,0.1c0,0-0.1,0-0.1,0.1
		c0.1,0.1,0.3,0.2,0.6,0.3c-0.3,0.1-0.5,0.3-0.7,0.4c-0.2,0.2-0.3,0.3-0.5,0.4c-0.1,0.1-0.2,0.3-0.4,0.5c-0.1,0.2-0.3,0.4-0.4,0.7
		c-0.1-0.1-0.1-0.2-0.2-0.3c-0.1-0.1-0.1-0.2-0.2-0.3l-0.1,0.1c0,0,0,0.1-0.1,0.1c-0.3-0.6-0.6-1-0.8-1.2c-0.2-0.2-0.5-0.3-0.8-0.5
		c0,0,0.1,0,0.1-0.1c0.1,0,0.1,0,0.1-0.1c-0.1-0.1-0.2-0.1-0.3-0.2c-0.1-0.1-0.2-0.1-0.3-0.2c0.4-0.2,0.7-0.4,0.8-0.7
		c0.1-0.2,0.1-0.6,0.1-1v-1.8c0-0.5-0.1-1-0.3-1.3c-0.1,0-0.1-0.1-0.1-0.1s-0.1-0.1-0.1-0.1l0.1-0.1c-0.1-0.2-0.3-0.3-0.5-0.4
		c0.4-0.3,0.7-0.6,0.8-0.8c0.1-0.2,0.1-0.6,0.1-1.1c0-0.5-0.1-0.8-0.3-1.1c-0.1,0-0.1-0.1-0.1-0.1s-0.1-0.1-0.1-0.1l0.1-0.1
		c-0.1-0.1-0.3-0.2-0.4-0.3l0.1-0.2c0.1,0,0.1,0,0.2,0c0.1,0,0.1,0,0.2,0c0.5,0,1.2-0.3,2-0.9c0.8-0.6,1.5-1,2-1
		c0.4,0,0.9,0.1,1.2,0.4c0.2,0.1,0.3,0.3,0.4,0.4c0,0,0,0,0.1,0c0.4,0.3,0.6,0.7,0.6,1.1c0,0.3-0.1,0.6-0.3,0.8
		c-0.2,0.2-0.4,0.3-0.8,0.3c-0.5,0-0.8-0.2-0.9-0.5c-0.3-0.1-0.5-0.4-0.5-0.8c0-0.2,0.1-0.3,0.1-0.4C64.2,9.7,64.1,9.9,64,10
		c-0.1,0.1-0.2,0.2-0.2,0.4l0,0c-0.2,0.5-0.4,1.1-0.4,1.7v1.7c0.4-0.1,0.8-0.2,1.1-0.4c0.3-0.2,0.7-0.7,1.1-1.5
		c0.1,0.1,0.1,0.2,0.2,0.3c0.1,0.1,0.1,0.2,0.2,0.3c0-0.1,0.1-0.1,0.1-0.1c0-0.1,0.1-0.1,0.1-0.1c0.1,0.3,0.2,0.5,0.3,0.7
		s0.2,0.4,0.3,0.5c0.2,0.2,0.6,0.3,0.9,0.5c-0.1,0-0.1,0.1-0.1,0.1c-0.1,0-0.1,0.1-0.1,0.1c0.1,0.1,0.2,0.1,0.3,0.2
		c0.1,0.1,0.2,0.1,0.3,0.2c-0.3,0.2-0.6,0.3-0.7,0.6c-0.2,0.3-0.3,0.6-0.3,0.8v2.2c0,0.5,0.3,1.1,0.8,1.7L68,19.8z M66.7,17.6v-2.2
		c0-0.3,0.1-0.6,0.2-0.8c0.2-0.3,0.4-0.4,0.6-0.6c-0.5-0.2-0.8-0.4-1.1-0.8c-0.2-0.2-0.4-0.6-0.7-1.2c-0.3,0.7-0.7,1.1-1,1.4
		c-0.4,0.3-1,0.4-1.7,0.4v-2.2c0-0.6,0.1-1.2,0.4-1.7C63.7,9.2,64.2,9,64.8,9c0.3,0,0.5,0.1,0.7,0.3c0.2,0.2,0.3,0.4,0.3,0.7
		c0,0.1,0,0.1,0,0.1s0,0.1,0,0.1c-0.1-0.5-0.3-0.8-0.7-0.8c-0.2,0-0.4,0.1-0.5,0.2c-0.1,0.2-0.2,0.3-0.2,0.6c0,0.6,0.3,0.8,0.9,0.8
		c0.3,0,0.6-0.1,0.7-0.3c0.2-0.2,0.3-0.4,0.3-0.7c0-0.4-0.2-0.8-0.6-1c-0.3-0.2-0.7-0.3-1.2-0.3c-0.5,0-1.2,0.3-2,0.9
		c-0.8,0.6-1.5,0.9-2,0.9c-0.1,0-0.1,0-0.2,0c-0.1,0-0.1,0-0.2,0c0.6,0.3,1,0.8,1,1.7c0,0.5-0.1,0.9-0.1,1.1
		c-0.1,0.3-0.4,0.5-0.8,0.8c0.6,0.3,0.9,1,0.9,1.8v1.8c0,0.4-0.1,0.8-0.1,1c-0.1,0.3-0.3,0.5-0.7,0.7c0.4,0.2,0.8,0.5,1.1,0.8
		c0.1,0.1,0.2,0.3,0.3,0.4c0.1,0.2,0.3,0.4,0.4,0.7c0.2-0.3,0.3-0.5,0.4-0.7c0.1-0.2,0.2-0.3,0.3-0.4c0.3-0.3,0.6-0.6,1.1-0.8
		c-0.4-0.2-0.6-0.4-0.7-0.7c-0.1-0.2-0.2-0.6-0.2-1v-3.4h0.2c0.3,0,0.7,0.1,1,0.2c0.4,0.2,0.6,0.4,0.6,0.7v6.7c0,1.1-0.4,1.8-1.2,2
		v0.3c1.2-0.3,2-0.8,2.5-1.5c0.2-0.3,0.4-0.9,0.6-1.8c0.1-0.7,0.4-1.2,0.9-1.5C67,18.8,66.7,18.2,66.7,17.6z"/>
	<path class="st0" d="M75.2,19.9c-0.4,0.2-0.7,0.4-1,0.7c-0.2,0.2-0.4,0.6-0.7,1.2c-0.1-0.1-0.1-0.2-0.2-0.3
		c-0.1-0.1-0.1-0.2-0.2-0.3c-0.1,0.1-0.1,0.1-0.1,0.2c-0.2-0.4-0.4-0.7-0.6-1c-0.2-0.2-0.5-0.3-0.7-0.3c-0.6,0-1.2,0.6-1.8,1.7
		c-0.1-0.1-0.1-0.2-0.2-0.3c-0.1-0.1-0.1-0.2-0.2-0.3c0,0.1-0.1,0.1-0.1,0.2c-0.3-0.6-0.5-1-0.6-1.1c-0.2-0.2-0.4-0.3-0.7-0.5h0.1
		c0.1,0,0.1,0,0.1-0.1c-0.1-0.1-0.2-0.1-0.3-0.2s-0.2-0.1-0.3-0.2c0.6-0.2,1-0.7,1-1.5c0-0.6-0.2-1-0.4-1.3l0.1-0.2
		c0.3,0.2,0.7,0.3,0.9,0.3s0.4-0.1,0.7-0.2c-0.1-0.1-0.1-0.2-0.2-0.3c-0.1-0.1-0.1-0.2-0.2-0.3L69.5,16c0,0.1,0,0.1-0.1,0.1
		c-0.2-0.3-0.3-0.6-0.4-0.7c-0.1-0.2-0.2-0.3-0.3-0.4c-0.1-0.1-0.2-0.2-0.3-0.2c-0.1-0.1-0.2-0.1-0.4-0.2c0,0,0.1,0,0.1-0.1
		c0,0,0.1,0,0.1-0.1c-0.2-0.1-0.3-0.2-0.6-0.3c0.6-0.3,1-0.6,1.1-0.8c0.1-0.1,0.1-0.2,0.2-0.4s0.2-0.5,0.4-0.8
		c0.1,0.1,0.1,0.2,0.2,0.3c0.1,0.1,0.1,0.2,0.2,0.3c0.1-0.1,0.1-0.2,0.1-0.2c0.3,0.6,0.5,1,0.7,1.3c0.2,0.2,0.4,0.2,0.6,0.2
		c0.6,0,1.1-0.6,1.7-1.9c0.1,0.1,0.1,0.2,0.2,0.3s0.1,0.2,0.2,0.3c0-0.1,0.1-0.1,0.1-0.1c0-0.1,0.1-0.1,0.1-0.1
		c0.1,0.3,0.2,0.5,0.3,0.7c0.1,0.2,0.2,0.3,0.3,0.5c0.2,0.2,0.5,0.3,0.8,0.5c-0.1,0-0.1,0.1-0.1,0.1c0,0-0.1,0-0.1,0.1
		c0.2,0.1,0.3,0.2,0.6,0.3c-0.3,0.1-0.5,0.3-0.7,0.6c-0.2,0.3-0.3,0.5-0.3,0.8V18c0,0.4,0.1,0.7,0.1,1c0,0.1,0,0.1,0.1,0.1
		c0.1,0.1,0.1,0.1,0.2,0.1v0.3l0,0c0.1,0.1,0.2,0.2,0.4,0.3v0.1H75.2z M74,18.8c-0.1-0.2-0.1-0.6-0.1-1v-2.2c0-0.3,0.1-0.6,0.2-0.8
		c0.2-0.3,0.4-0.4,0.6-0.6c-0.4-0.2-0.8-0.5-1.1-0.8c-0.2-0.2-0.4-0.6-0.6-1.1c-0.6,1.2-1.1,1.8-1.7,1.8s-1.2-0.6-1.8-1.8
		c-0.1,0.3-0.3,0.6-0.3,0.7c-0.1,0.2-0.2,0.3-0.2,0.4c-0.2,0.3-0.6,0.6-1,0.8c0.4,0.2,0.8,0.5,1,0.7c0.1,0.1,0.3,0.4,0.6,1.1
		c0.6-1.1,1.2-1.6,1.7-1.6c0.2,0,0.4,0.1,0.6,0.3c0.2,0.2,0.2,0.4,0.2,0.6v1.1c-0.3-0.3-0.6-0.4-0.9-0.4c-0.2,0-0.5,0.2-0.9,0.4
		s-0.7,0.4-1.1,0.4c-0.3,0-0.6-0.1-0.9-0.2c0.3,0.3,0.5,0.7,0.5,1.3c0,0.8-0.3,1.3-0.8,1.5c0.4,0.2,0.7,0.5,1,0.8
		c0.1,0.2,0.3,0.5,0.6,1.1c0.6-1.1,1.2-1.6,1.8-1.6c0.6,0,1.2,0.6,1.7,1.6c0.3-0.5,0.5-0.8,0.7-1.1c0.2-0.3,0.6-0.5,1-0.8
		C74.4,19.3,74.2,19,74,18.8z M71.9,14.9c-0.1-0.1-0.1-0.1-0.2-0.1c-0.6,0-1.1,0.6-1.7,1.7c0.1,0,0.1-0.1,0.1-0.1
		c0.1-0.1,0.1-0.1,0.1-0.1c0.4-0.3,0.7-0.4,1-0.4c0.3,0,0.5,0.1,0.8,0.3v-1C72,15.2,72,15.1,71.9,14.9z M72.1,18.1
		c0,0.8-0.3,1.2-0.8,1.2c-0.3,0-0.6-0.2-0.7-0.5c-0.1-0.2-0.1-0.5-0.1-1c0-1,0.2-1.5,0.7-1.5c0.3,0,0.6,0.2,0.8,0.7L72.1,18.1
		L72.1,18.1z M72,17.1L72,17.1C72,17,72,17,71.9,17c-0.1-0.1-0.2-0.1-0.2-0.1c-0.4,0-0.6,0.4-0.6,1.3c0,0.4,0,0.7,0.1,1l0,0v0.1
		c0.1,0,0.1,0,0.2,0c0.4,0,0.7-0.4,0.7-1.2V17.1z"/>
	<path class="st0" d="M82.4,19.8c-0.4,0.2-0.7,0.4-1,0.8c-0.1,0.1-0.2,0.2-0.3,0.4c-0.1,0.2-0.3,0.4-0.4,0.8
		c-0.1-0.1-0.1-0.2-0.2-0.3c-0.1-0.1-0.1-0.2-0.2-0.2l-0.1,0.1c0,0,0,0.1-0.1,0.1c-0.2-0.3-0.3-0.6-0.4-0.8
		c-0.1-0.2-0.2-0.3-0.3-0.4l0,0c-0.1-0.1-0.2-0.2-0.3-0.2c-0.1-0.1-0.2-0.1-0.3-0.2c-0.2,0.1-0.4,0.2-0.6,0.4
		c-0.2,0.1-0.3,0.3-0.4,0.4c-0.1,0.1-0.2,0.2-0.3,0.4c-0.1,0.2-0.3,0.4-0.4,0.7c-0.1-0.1-0.1-0.2-0.2-0.3c-0.1-0.1-0.1-0.2-0.2-0.3
		l-0.1,0.1c0,0,0,0.1-0.1,0.1c-0.2-0.3-0.3-0.5-0.4-0.7c-0.1-0.2-0.2-0.3-0.3-0.4c-0.1-0.1-0.2-0.2-0.3-0.2
		c-0.1-0.1-0.3-0.2-0.4-0.2c0,0,0.1,0,0.1-0.1c0,0,0.1,0,0.1-0.1c-0.2-0.1-0.4-0.2-0.6-0.3c0.4-0.2,0.7-0.4,0.8-0.7
		c0.1-0.2,0.1-0.6,0.1-1v-2c0-0.3-0.1-0.6-0.3-0.8c-0.1,0-0.1-0.1-0.1-0.1c-0.1,0-0.1-0.1-0.1-0.1c0,0,0,0,0.1,0c0,0,0,0,0.1,0
		c-0.1-0.2-0.3-0.3-0.5-0.4c0.3-0.1,0.5-0.3,0.7-0.4c0.2-0.1,0.3-0.3,0.4-0.4c0.2-0.2,0.4-0.6,0.7-1.2c0.1,0.1,0.1,0.2,0.2,0.3
		c0.1,0.1,0.1,0.2,0.2,0.3l0.1-0.2c0.2,0.5,0.5,0.9,0.7,1.2c0.2,0.2,0.4,0.2,0.6,0.2c0.6,0,1.1-0.6,1.7-1.8c0.1,0.1,0.1,0.2,0.2,0.3
		s0.1,0.2,0.2,0.3l0.1-0.2c0.1,0.2,0.2,0.4,0.3,0.7c0.1,0.2,0.2,0.3,0.3,0.4c0.2,0.2,0.5,0.3,0.8,0.5c-0.1,0-0.1,0.1-0.1,0.1
		c0,0-0.1,0-0.1,0.1c0.2,0.1,0.3,0.2,0.6,0.3c-0.6,0.3-0.9,0.7-0.9,1.4v2.1c0,0.2,0,0.4,0.1,0.6c0,0.2,0.1,0.3,0.1,0.4
		c0,0.1,0,0.1,0.1,0.1c0.1,0.1,0.1,0.1,0.2,0.1v0.2c0.1,0.1,0.2,0.2,0.4,0.3L82.4,19.8L82.4,19.8z M81.3,18.6
		c-0.1-0.2-0.1-0.6-0.1-1v-2.1c0-0.7,0.3-1.1,0.8-1.4c-0.5-0.2-0.8-0.5-1.1-0.7c-0.1-0.1-0.2-0.3-0.3-0.4c-0.1-0.2-0.2-0.4-0.4-0.7
		c-0.6,1.2-1.2,1.7-1.7,1.7c-0.6,0-1.2-0.6-1.7-1.7c-0.3,0.5-0.4,0.9-0.7,1.1c-0.1,0.1-0.3,0.3-0.4,0.4c-0.2,0.1-0.4,0.2-0.6,0.3
		c0.2,0.1,0.4,0.3,0.6,0.6c0.2,0.3,0.2,0.5,0.2,0.8v2.1c0,0.4-0.1,0.8-0.1,1c-0.1,0.3-0.3,0.5-0.7,0.7c0.4,0.2,0.7,0.5,1,0.8
		c0.1,0.1,0.2,0.2,0.3,0.4c0.1,0.2,0.2,0.4,0.4,0.7c0.3-0.6,0.6-0.9,0.7-1.1c0.3-0.3,0.6-0.6,1-0.8c-0.4-0.2-0.6-0.4-0.7-0.7
		c-0.1-0.2-0.1-0.6-0.1-1v-2c0-0.3,0.1-0.6,0.2-0.8c0.2-0.3,0.4-0.4,0.7-0.4c0.3,0,0.5,0.1,0.7,0.4c0.1,0.2,0.2,0.5,0.2,0.8v2.1
		c0,0.5-0.1,0.8-0.1,1c-0.1,0.3-0.3,0.5-0.7,0.7c0.4,0.2,0.7,0.5,1,0.8c0.1,0.1,0.2,0.2,0.3,0.4c0.1,0.2,0.2,0.4,0.4,0.7
		c0.3-0.6,0.6-1,0.7-1.1c0.2-0.3,0.6-0.6,1-0.8C81.6,19.1,81.4,18.9,81.3,18.6z M78.6,19.3c0.3-0.2,0.6-0.4,0.7-0.6
		c0.1-0.2,0.1-0.5,0.1-1v-2.1c0-0.3-0.1-0.5-0.2-0.7c-0.1-0.1-0.1-0.1-0.2-0.1c-0.3,0-0.4,0.1-0.6,0.4c-0.1,0.2-0.2,0.5-0.2,0.8v2.1
		c0,0.4,0.1,0.7,0.1,1c0,0,0,0,0,0.1c0,0,0,0,0,0.1L78.6,19.3z M78.8,19.5c-0.1-0.1-0.1-0.1-0.2-0.1c0.1,0.1,0.2,0.2,0.3,0.2
		C78.9,19.6,78.9,19.6,78.8,19.5z"/>
	<path class="st0" d="M89.7,23.6c-0.1,0-0.2,0-0.3,0s-0.2,0-0.3,0c-0.8,0-1.5,0.1-2.1,0.3c-0.8,0.3-1.4,0.7-1.7,1.3
		c-0.1-0.1-0.1-0.2-0.2-0.3c-0.1-0.1-0.1-0.2-0.2-0.2l-0.1,0.1c-0.1-0.1-0.1-0.1-0.1-0.2s-0.1-0.1-0.1-0.1c-0.3-0.2-0.7-0.3-1-0.3
		c-0.3,0-0.4,0.1-0.6,0.4l0,0c-0.1,0.2-0.1,0.3-0.1,0.4C82.9,25,82.8,25,82.8,25c-0.1,0-0.2-0.1-0.2-0.4s0-0.5,0.1-0.7
		c-0.1,0.1-0.1,0.1-0.1,0.2l0,0c-0.1,0.2-0.1,0.3-0.1,0.4c-0.1,0.1-0.1,0.1-0.1,0.1c-0.1,0-0.2-0.1-0.2-0.4c0-0.6,0.1-1,0.3-1.3
		c0.1-0.1,0.1-0.2,0.3-0.2c0.1-0.1,0.3-0.2,0.5-0.3c0.3-0.2,0.6-0.6,0.8-1c-0.1-0.3-0.3-0.5-0.3-0.7c-0.1-0.2-0.2-0.3-0.3-0.4
		S83.3,20,83.2,20c-0.2-0.1-0.3-0.2-0.5-0.2c0.1,0,0.1-0.1,0.1-0.1c0.1,0,0.1-0.1,0.1-0.1c-0.1-0.1-0.2-0.1-0.3-0.2
		c-0.1-0.1-0.2-0.1-0.3-0.2c0.6-0.3,1-0.8,1-1.4v-2.1c0-0.5-0.1-0.8-0.3-1.1c0,0-0.1-0.1-0.1-0.1v-0.1c-0.1-0.1-0.2-0.2-0.4-0.3
		l0.1-0.1c0.7,0,1.4-0.2,2.1-0.5c0.7-0.3,1.3-0.8,1.7-1.4c0.1,0.2,0.2,0.4,0.3,0.5c0-0.1,0.1-0.1,0.1-0.1c0.1,0.2,0.2,0.4,0.4,0.6
		c0.1,0.1,0.2,0.2,0.3,0.2c0.1,0.1,0.2,0.1,0.3,0.2c0.6,0.4,1.2,0.6,1.7,0.6v0.2c-0.1,0-0.1,0.1-0.2,0.1c-0.1,0-0.1,0.1-0.2,0.1
		c0.2,0.1,0.5,0.1,0.7,0.1v0.2c-0.3,0.1-0.5,0.2-0.6,0.6c-0.1,0.3-0.2,0.6-0.2,1v1.8c0,0.5,0.1,0.9,0.3,1.2l0.1,0.1
		c0.1,0,0.1,0.1,0.1,0.1l-0.1,0.1c0.1,0.2,0.3,0.3,0.5,0.4c-0.4,0.3-0.7,0.6-0.8,0.9c-0.1,0.2-0.1,0.6-0.1,1.1
		c0,0.5,0.1,0.9,0.2,1.2c0.1,0.1,0.2,0.1,0.2,0.1v0.2l0,0C89.4,23.4,89.5,23.5,89.7,23.6L89.7,23.6z M88.3,21.3c0-0.6,0.1-1,0.1-1.1
		c0.1-0.3,0.4-0.6,0.8-0.8c-0.6-0.3-0.8-0.9-0.8-1.8v-1.8c0-0.4,0.1-0.7,0.2-1c0.2-0.4,0.4-0.6,0.7-0.7c-0.6,0-1.1-0.2-1.7-0.6
		c-0.6-0.4-1.1-0.8-1.3-1.3c-0.4,0.5-1,1-1.7,1.3c-0.7,0.3-1.5,0.6-2.1,0.6c0.6,0.3,0.8,0.8,0.8,1.7V18c0,0.6-0.3,1.1-0.8,1.3
		c0.4,0.2,0.8,0.4,1.1,0.7c0.2,0.2,0.4,0.6,0.7,1.1c0.3-0.7,0.6-1.1,0.8-1.3c0.3-0.3,0.8-0.4,1.5-0.4v3.5c-0.1,0-0.1,0-0.2,0
		c-0.1,0-0.1,0-0.2,0c-0.7,0-1.4-0.4-2-1.4c-0.1,0.2-0.2,0.3-0.3,0.4c-0.1,0.1-0.3,0.3-0.4,0.4c-0.4,0.3-0.7,0.5-0.7,0.6
		c-0.2,0.3-0.3,0.7-0.3,1.2c0,0.2,0,0.3,0.1,0.3c0.1,0,0.1-0.2,0.2-0.4c0.1-0.3,0.3-0.4,0.6-0.4c0.7,0,1.2,0.3,1.6,1
		c0.3-0.6,0.9-1,1.7-1.2c0.7-0.2,1.3-0.3,2.1-0.3c0.1,0,0.2,0,0.3,0s0.2,0,0.3,0C88.6,23,88.3,22.4,88.3,21.3z M84.1,21.4
		c0.1,0.1,0.1,0.2,0.2,0.2c0.1,0.1,0.1,0.2,0.2,0.2v-0.1c0,0,0,0,0-0.1c-0.1-0.1-0.1-0.2-0.2-0.3c-0.1-0.1-0.1-0.2-0.2-0.3
		C84.2,21.3,84.1,21.4,84.1,21.4z M86.2,22.9c0.1,0,0.1,0,0.1,0V20c-0.4,0.1-0.7,0.2-1,0.4c-0.2,0.2-0.5,0.7-0.9,1.5
		c0.1,0.1,0.2,0.2,0.2,0.3c0.1,0.1,0.2,0.2,0.2,0.3c0.4,0.3,0.8,0.5,1.2,0.5C86.1,22.9,86.2,22.9,86.2,22.9z M86.5,19
		c-0.1,0-0.2,0-0.2,0c-0.1,0-0.1,0-0.1,0c-0.7,0-1.1-0.3-1.1-0.8V14c1,0.4,1.4,1.2,1.4,2.1L86.5,19L86.5,19z M86.4,19v-2.8
		c0-0.5-0.1-1-0.4-1.3c-0.1-0.1-0.1-0.1-0.2-0.2c-0.1-0.1-0.2-0.1-0.2-0.1v4.1c0,0.1,0,0.2,0.1,0.2c0.1,0.1,0.2,0.1,0.3,0.1
		s0.2,0,0.3,0H86.4z"/>
	<path class="st0" d="M95.9,19.8c-0.5,0.1-1,0.3-1.6,0.6c-0.3,0.2-0.5,0.4-0.7,0.6c-0.2,0.2-0.4,0.4-0.6,0.7
		c-0.1-0.1-0.1-0.2-0.2-0.3c-0.1-0.1-0.1-0.2-0.2-0.3l-0.1,0.1c-0.1-0.2-0.2-0.3-0.3-0.5c-0.1-0.1-0.2-0.2-0.3-0.2
		c-0.1-0.1-0.2-0.1-0.3-0.2c-0.5-0.3-1.2-0.6-2-0.7c0.1-0.1,0.1-0.1,0.2-0.1s0.1-0.1,0.2-0.1c-0.1-0.1-0.3-0.1-0.4-0.1
		c-0.1-0.1-0.3-0.1-0.4-0.1c0.3-0.2,0.6-0.3,0.8-0.6c0.2-0.3,0.3-0.5,0.3-0.8v-2c0-0.4-0.1-0.8-0.3-1.2c-0.1,0-0.1-0.1-0.1-0.1
		c-0.1,0-0.1-0.1-0.1-0.1v-0.1c-0.1-0.1-0.3-0.2-0.4-0.3l0.1-0.1c0.8,0,1.6-0.2,2.3-0.4c0.8-0.3,1.4-0.8,1.8-1.5
		c0.1,0.1,0.1,0.2,0.2,0.3c0.1,0.1,0.1,0.2,0.2,0.3l0.1-0.1c0-0.1,0.1-0.1,0.1-0.1c0.1,0.2,0.2,0.4,0.3,0.7c0.1,0.2,0.2,0.3,0.3,0.4
		c0.1,0.1,0.2,0.2,0.4,0.2c0.1,0.1,0.3,0.2,0.4,0.2l-0.1,0.1l-0.1,0.1c0.2,0.1,0.4,0.2,0.6,0.3c-0.2,0.2-0.3,0.3-0.4,0.5
		c-0.1,0.2-0.2,0.4-0.3,0.7c-0.1,0.3-0.2,0.6-0.2,0.7c-0.1,0.2-0.2,0.4-0.3,0.5c-0.4,0.4-1.1,0.8-2,1v0.2v0.1c0,0.3,0.1,0.5,0.2,0.7
		c0.1,0.1,0.3,0.1,0.4,0.2c0.3,0.1,0.9,0.2,1.7,0.2h0.3v0.2c-0.2,0-0.3,0.1-0.4,0.1c-0.2,0.1-0.3,0.1-0.4,0.2c0.1,0,0.3,0.1,0.4,0.1
		c0.2,0,0.3,0,0.5,0h0.3L95.9,19.8L95.9,19.8z M93.5,19.2c-0.7-0.2-1.1-0.7-1.1-1.4v-0.3c1-0.2,1.6-0.6,2-1c0.2-0.2,0.3-0.6,0.5-1.2
		c0.2-0.6,0.3-1,0.6-1.2c-0.4-0.2-0.8-0.4-1.1-0.8c-0.1-0.1-0.2-0.3-0.3-0.4c-0.1-0.2-0.2-0.4-0.4-0.7c-0.4,0.6-1.1,1.1-1.8,1.5
		c-0.7,0.3-1.5,0.4-2.3,0.4c0.7,0.3,1,1,1,1.8v2c0,0.3-0.1,0.6-0.3,0.8c-0.2,0.3-0.4,0.4-0.7,0.6c0.6,0.1,1.2,0.3,1.7,0.7
		c0.6,0.3,1.1,0.8,1.3,1.2c0.3-0.5,0.7-0.9,1.2-1.3c0.6-0.4,1.1-0.6,1.6-0.6C94.5,19.4,93.8,19.3,93.5,19.2z M93.3,16.7
		c-0.3,0.2-0.6,0.4-1,0.4v-3.1c0.3,0,0.6,0.2,0.9,0.7c0.3,0.4,0.5,0.8,0.5,1.1C93.7,16.2,93.6,16.5,93.3,16.7z M93.2,14.7
		C93.2,14.7,93.2,14.7,93.2,14.7c-0.1-0.1-0.1-0.1-0.1-0.1c-0.1-0.1-0.2-0.1-0.3-0.1v2.4c0.2-0.1,0.3-0.2,0.4-0.3
		c0.3-0.2,0.4-0.5,0.4-0.8C93.7,15.5,93.5,15.2,93.2,14.7z M93.1,17.4c-0.1,0-0.1,0-0.1,0.1C93.1,17.4,93.1,17.4,93.1,17.4
		c0.1,0,0.1,0,0.1-0.1C93.2,17.4,93.2,17.4,93.1,17.4z"/>
</g>
<g class="st1">
	<path class="st0" d="M44.6,18L44.6,18L43,21.7c-0.7,2.2-1.9,3.3-3.7,3.4c-0.7,0.1-1.5-0.1-2.2-0.4c-0.2-0.1-0.3-0.1-0.5-0.1
		c-0.3,0-0.6,0.1-0.8,0.3c-0.2,0.2-0.3,0.4-0.3,0.7c0.1,0.5,0.3,1,0.8,1.5c0.7,0.7,1.8,1,3.1,1.1c1.7,0.1,3-0.4,4-1.3
		c-0.4-0.7-0.6-1.2-0.6-1.7c-0.1-1.1,0.4-1.7,1.3-1.8c0.8,0.1,1.1,0.6,1.1,1.5c-0.1,0.8-0.3,1.5-0.8,2.1c0.7,0.6,1.6,0.8,2.9,0.8
		c2.1,0,3.1-0.8,3.1-2.2c0-0.2,0-0.3-0.1-0.4c-0.2-0.3-0.3-0.6-0.3-0.6C50,24.4,50,24.3,50,24.3c0-0.1,0.1-0.2,0.2-0.2
		c0.1,0,0.2,0.1,0.3,0.2c0.4,0.5,0.6,0.8,0.6,1c0,0.7-0.2,1.4-0.7,2c-0.7,1-1.9,1.4-3.5,1.3c-1.2-0.1-2.2-0.4-2.9-1.2
		c-0.7,0.7-1.7,1.1-3,1.5c-0.2,0.1-0.5,0.1-0.8,0.1C40,29,39.7,29,39.4,29c-1.1-0.1-2-0.3-2.7-0.6c-1.8-0.8-2.8-2.1-2.9-4.1
		c-0.1-2.6,1.1-4,3.5-4c0.4-0.1,1.1,0.1,1.7,0.3c0.4,0.2,0.8,0.4,1.3,0.4c0.6,0,1.1-0.2,1.6-0.6c0.2-0.2,0.8-1.5,1.8-3.6l-0.2-0.5
		c-0.2,0.3-0.4,0.4-0.9,0.2c-0.4-0.2-0.6-0.4-0.6-0.8c-0.7-0.2-1.2-0.3-1.6-0.4c-0.4-0.1-0.7-0.2-0.9-0.2c-1.4,0-2.6,0.3-3.6,0.9
		c1.2-2.3,3-3.6,5.3-3.9c-0.8-1.5-1.5-2.6-1.9-3.4c-0.4-0.8-0.8-1.3-0.9-1.6c-0.2-0.4-0.6-0.7-1.1-0.7c-0.1,0-0.1,0-0.2,0
		c-0.1,0-0.1,0-0.2,0.1c-0.7,0.1-1.1,0.6-1.5,1.2c-0.1,0-0.1,0.1-0.2,0.1c-0.1,0-0.2-0.1-0.1-0.2c0-0.6,0.2-1.2,0.6-1.8
		c0.6-0.9,1.4-1.5,2.5-1.6c0.1,0,0.2-0.1,0.3-0.1c0.1,0,0.2,0,0.3,0c1.6,0,2.9,0.8,4,2.5c0.2,0.2,0.5,0.8,1,1.7
		c0.5,0.9,1.2,2.1,2.1,3.6L46,12c0.4-0.9,0.7-1.7,1.1-2.5s0.6-1.5,0.9-2.1c0.4-0.9,1.1-1.6,2-2.2c0.8-0.4,1.7-0.7,2.5-0.7
		c0.7,0,1.3,0.1,1.9,0.4c-0.1-0.2,0.1-0.3,0.3-0.5c0.4-0.1,0.6,0.1,0.7,0.5c0.1,0.2,0,0.4-0.1,0.5c0.2,0.1,0.3,0.2,0.4,0.3
		C55.9,5.8,56,5.9,56,5.9l0.7-0.4L57,6l-3.9,3c-0.8-0.8-1.7-1.3-2.7-1.3c-0.6,0-1.1,0.1-1.5,0.4l-2,4.5c1.6,0.4,2.7,0.7,3.4,0.7
		c0.8,0,2-0.3,3.4-0.9c-0.6,1.4-1.6,2.5-3.1,3.2c-0.3,0.2-0.6,0.3-1,0.4c-0.3,0.1-0.7,0.2-1.1,0.3c1.8,2.4,3.3,3.6,4.4,3.6
		c0.3,0,0.6-0.1,0.8-0.3c0.1,0.6,0.2,1.1,0.2,1.7c0,2.1-0.8,3-2.3,3c-2-0.1-4-1.6-6-4.5c-0.2,0.2-0.3,0.2-0.5,0.2s-0.3-0.1-0.4-0.2
		c-0.1-0.2-0.2-0.3-0.2-0.5c0-0.2,0.1-0.5,0.3-0.8L44.6,18z M56.6,6l-0.2-0.2l-0.6,0.4c-0.2-0.1-0.3-0.2-0.3-0.3
		c-0.1-0.1-0.2-0.2-0.2-0.2c-0.1-0.1-0.2-0.1-0.2,0.1C55,5.9,55,5.9,55.1,6c0.1,0.1,0.2,0.1,0.3,0.2c0.1,0.1,0.2,0.1,0.3,0.2
		c-0.7,0.5-1.2,0.9-1.7,1.2c-0.4,0.3-0.7,0.6-1,0.7c-0.7-0.5-1.4-0.8-2.1-1c-0.3-0.1-0.6-0.1-1-0.1c-1,0.1-1.5,0.3-1.6,0.5
		c0.3-1,1.1-1.7,2.2-2.2C51,5.2,51.3,5.2,51.5,5C51.8,5,52,4.9,52.3,4.9c1.1,0.2,1.7,0.4,2,0.6c0.1,0.1,0.2,0.1,0.2-0.1
		c0-0.1,0-0.1-0.1-0.2c-0.7-0.3-1.4-0.6-2.1-0.6c-0.8,0-1.6,0.2-2.4,0.7c-0.8,0.6-1.5,1.2-1.8,2.1c-0.6,1.3-1,2.4-1.4,3.3
		c-0.4,0.9-0.7,1.6-0.9,2.1c-0.6-1-1.1-2-1.6-3s-1.1-2-1.7-3c-1-1.6-2.2-2.5-3.9-2.5c-0.2,0-0.3,0-0.4,0.1c-1.9,0.4-2.7,1.3-2.6,2.5
		c0.2-0.2,0.3-0.4,0.4-0.6s0.3-0.3,0.6-0.4c0.2-0.1,0.3-0.2,0.5-0.2c0.7-0.1,1.3,0.3,1.8,1l3.1,5.4c-2.3,0.3-4,1.2-5.2,2.9
		c1.3-0.3,2.2-0.4,2.7-0.4c0.7,0,1.6,0.2,2.7,0.6c0.1,0.1,0.2,0,0.2-0.1c0.1-0.1,0.1-0.2-0.2-0.2c-0.2-0.1-0.3-0.1-0.5-0.2
		c-0.2-0.1-0.3-0.1-0.5-0.2c-0.7-0.2-1.3-0.2-1.7-0.2c-0.3,0-0.7,0.1-1,0.1c-0.3,0.1-0.6,0.1-0.9,0.2l-0.1,0.1
		c0.6-0.7,1.3-1.2,2.3-1.7c0.8-0.3,1.6-0.5,2.4-0.6c0.9,0,2.7,0.3,5.4,1.1c1,0.3,2,0.4,2.9,0.4c0.6,0,1.1-0.1,1.4-0.2
		c-1.4,1.3-2.9,2-4.6,2c-1.2,0.1-2.3-0.1-3.2-0.4c-0.2-0.1-0.3-0.1-0.4,0c-0.1,0.1,0,0.2,0.2,0.2c0,0.2,0.1,0.2,0.1,0.2l0.4,0.6
		c0,0.2-0.3,0.8-1,2c-0.6,1.1-1,1.7-1.1,2c-0.4,0.4-1,0.7-1.6,0.7c-0.5,0-1-0.1-1.3-0.3c-0.7-0.3-1.4-0.4-2-0.4
		c-1.2-0.1-2.1,0.5-2.7,1.6c-0.3,0.6-0.5,1.2-0.5,2c-0.1,0.8,0.2,1.6,0.7,2.5c0.9,1.5,2.4,2.2,4.6,2.2c2,0,3.5-0.4,4.5-1.3
		c0.2-0.2,0.2-0.2,0.2-0.3l0.2-0.2c0.5-0.6,0.7-1.3,0.8-2c0.1-0.3-0.1-0.6-0.2-0.9s-0.4-0.4-0.7-0.4s-0.6,0.2-0.8,0.4
		c-0.2,0.3-0.3,0.6-0.3,1.1c0,0.6,0.2,1.1,0.6,1.6c0.1-0.1,0.1-0.2,0.2-0.2c-0.2-0.3-0.4-0.8-0.4-1.2c-0.1-0.8,0.2-1.3,0.7-1.3
		c0.5,0,0.8,0.3,0.8,1c-0.1,0.6-0.3,1.2-0.8,1.8c-0.1,0.1-0.2,0.2-0.3,0.2c-0.1,0.1-0.2,0.2-0.2,0.2c-1,0.8-2.3,1.2-3.9,1.2
		c-0.7,0-1.2-0.1-1.8-0.2c-0.6-0.2-1-0.3-1.4-0.6c-0.4-0.2-0.7-0.5-0.9-0.8c-0.2-0.3-0.3-0.7-0.3-1c-0.1-0.7,0.2-1.1,0.6-1.4
		c0-0.2-0.1-0.3-0.3-0.2c-0.3,0.3-0.5,0.7-0.5,1.2c0,0.4,0.1,0.9,0.3,1.5c-0.2-0.2-0.5-0.7-0.8-1.5c-0.1-0.2-0.1-0.3-0.2-0.5
		c-0.1-0.2-0.1-0.4-0.2-0.6c-0.1-0.9,0.2-1.7,0.8-2.4c0.7-0.7,1.3-1.1,2-1c0.6,0.1,1.1,0.2,1.5,0.3c0.2,0.1,0.3,0.1,0.4,0.2
		s0.3,0.1,0.4,0.2c0.4,0.2,0.8,0.2,1.3,0.2c1,0,1.7-0.5,2.1-1.6c-0.3,1.7-1,3-2,3.7c-0.4,0.3-1,0.4-1.5,0.5
		c-0.5-0.1-0.8-0.2-1.1-0.2c-0.3-0.1-0.5-0.2-0.7-0.2c-0.2-0.1-0.3-0.1-0.4-0.1c-0.1,0-0.1-0.1-0.2-0.1c-0.1,0.1-0.2,0.1-0.2,0.1
		s0.1,0.1,0.2,0.2s0.3,0.1,0.3,0.2c0.7,0.4,1.3,0.5,2.1,0.4c1.5-0.1,2.6-1.1,3.2-3l2-4.6V17l0.6,1c0.3,0.1,0.4,0,0.3-0.2
		c-0.2-0.3-0.4-0.6-0.4-0.8l-0.2-0.4c-0.2-0.3-0.3-0.6-0.4-0.8c1,0.2,2,0.3,3,0.3c0.1,0,0.2,0,0.2-0.1c0.3,0.7,1,1.6,2.2,2.7
		c1.2,1.2,2.2,1.8,2.9,1.8c0.3,0,0.6-0.1,0.7-0.2c0.1,1.6-0.3,2.6-1.1,2.8c-0.2,0.1-0.4,0.1-0.6,0.1c-1.5,0-3.2-1.3-5.4-4.1
		c-0.1-0.2-0.2-0.2-0.4-0.1c-0.1,0.1-0.1,0.2,0.1,0.3c0.3,0.5,0.7,1,1.1,1.4c0.4,0.4,0.8,0.8,1.2,1.2c1.1,1,2.2,1.5,3.1,1.5
		c1.4-0.1,2.1-0.9,2.1-2.4c0-0.3-0.1-0.7-0.2-1.2c-0.2,0.1-0.3,0.2-0.6,0.2c-1.3,0-2.9-1.3-5-4.1h-0.1c2.4-0.4,4-1.3,4.9-3
		c-0.5,0.4-1.3,0.6-2.3,0.6c-0.8,0-1.7-0.1-2.7-0.4c-0.5-0.2-1-0.3-1.4-0.4l2.2-5.1c0.3-0.4,0.9-0.6,1.9-0.5c1,0.1,1.8,0.5,2.6,1.2
		L56.6,6z M35.8,22c0,0-0.1,0-0.1,0c-0.3,0.2-0.6,0.4-0.7,0.7c-0.1,0.2-0.1,0.5-0.1,0.7c0.1,0.2,0.2,0.3,0.2,0.4
		c0.1,0.2,0.1,0.3,0,0.4c-0.1,0.2-0.3,0.2-0.4,0.1c-0.2-0.1-0.3-0.2-0.1-0.3c0,0,0.1,0,0.1,0.1c0.1-0.1,0.1-0.1,0.1-0.2
		c-0.1-0.1-0.1-0.1-0.2-0.1c-0.2,0.2-0.2,0.4-0.1,0.5c0.2,0.2,0.3,0.2,0.5,0.1c0.2-0.1,0.3-0.3,0.2-0.5c-0.1-0.1-0.1-0.2-0.1-0.2
		c0-0.1-0.1-0.1-0.1-0.1c0.2,0.1,0.3,0.1,0.4,0c0.2-0.1,0.3-0.2,0.3-0.3c0.1-0.2-0.1-0.4-0.2-0.4c-0.1,0.1-0.2,0.1-0.2,0.2
		c0.1,0.1,0.2,0.1,0.2,0.1c0.1,0.1,0.1,0.2-0.1,0.3c-0.2,0.2-0.4,0.2-0.5-0.1C35,23.2,35,23.1,35,23c0.3-0.4,0.5-0.7,0.7-0.8
		C35.8,22.1,35.8,22,35.8,22z M41.1,23.1c0.1-0.2,0.2-0.3,0.2-0.4c0-0.3-0.2-0.6-0.7-0.9c0.3,0.2,0.5,0.5,0.5,0.8
		c0,0.1,0,0.2-0.1,0.3c-0.2,0.4-0.6,0.6-1,0.6c-0.5,0-1-0.2-1.3-0.7c0.4,0.4,0.9,0.7,1.3,0.7c0.4,0,0.7-0.2,1-0.5
		c0.1-0.1,0.1-0.2,0.1-0.3c0-0.3-0.2-0.6-0.7-0.8c0.4,0.2,0.6,0.4,0.6,0.8c0,0.1,0,0.1-0.1,0.2c-0.2,0.2-0.4,0.4-0.7,0.4
		c-0.5,0-1-0.3-1.5-0.8c0.5,0.4,1,0.7,1.3,0.7c0.3,0,0.5-0.1,0.7-0.3c0.1-0.3-0.1-0.6-0.7-0.8c0.4,0.2,0.6,0.5,0.5,0.7
		C40.4,22.9,40.2,23,40,23c-0.4,0-0.9-0.3-1.4-0.8c0.5,0.5,1,0.7,1.3,0.7c0.2,0,0.3-0.1,0.4-0.2c0.1-0.2-0.1-0.3-0.6-0.4
		c0.3,0.2,0.5,0.3,0.4,0.4c-0.1,0.2-0.4,0.2-0.9-0.1c-0.2-0.2-0.3-0.3-0.3-0.5s0.1-0.3,0.2-0.4c0.1-0.1,0.1-0.1-0.1-0.2
		c-0.3-0.1-0.6-0.1-0.7,0.1c-0.1,0.2-0.2,0.3-0.2,0.3c-0.1,0.1-0.1,0.2-0.1,0.3c-0.1-0.2-0.2-0.2-0.3-0.2s-0.3,0-0.6,0
		c-0.3,0-0.5-0.1-0.6-0.2c-0.1-0.1-0.1-0.1-0.2,0.1c-0.1,0.1-0.1,0.2-0.1,0.3c0,0.2,0.1,0.3,0.2,0.4c0,0.1,0.2,0.1,0.4,0.3
		c-0.7,0.2-1.1,0.5-1.1,0.7c-0.1,0.4,0.1,0.7,0.5,0.7c0.2,0,0.2-0.1,0.3-0.2c0.1-0.2-0.1-0.3-0.2-0.4c-0.1,0-0.1,0-0.1,0.1
		c0-0.1-0.1-0.1-0.1-0.2c0-0.3,0.2-0.4,0.7-0.5c0.3-0.1,0.7,0,1,0.2c0.3,0.2,0.7,0.3,1,0.5c-0.2-0.2-0.3-0.3-0.4-0.3
		c-0.1-0.1-0.2-0.2-0.2-0.2c-0.6-0.4-0.9-0.6-1.1-0.6c-0.2-0.1-0.4-0.2-0.5-0.4c0.2,0.2,0.4,0.2,0.6,0.2c0.3-0.1,0.6,0.1,1,0.5
		c0.6,0.7,1.1,1,1.7,1C40.4,23.7,40.8,23.5,41.1,23.1z M45.4,12.7c-0.7-1.2-1.2-2.2-1.7-3c-0.4-0.8-0.8-1.5-1.1-2
		c-1.2-2-2.5-3-3.8-3c-0.6,0-1.2,0.1-1.7,0.4c-0.6,0.3-1,0.7-1.2,1.2c0.2-0.2,0.4-0.4,0.7-0.5c0.1,0,0.2-0.1,0.2-0.1s0.1,0,0.2-0.1
		c0.6-0.1,1,0.1,1.2,0.3c0.3,0.3,0.8,0.8,1.3,1.8c0.7,1.1,1.2,2,1.6,2.7c0.4,0.7,0.7,1.3,1,1.7C42.8,12.2,43.8,12.3,45.4,12.7
		L45.4,12.7z M44.6,12.2l-0.2-0.1c-0.3-1.5-0.8-2.1-1.6-2c-0.4,0.1-0.7,0.3-0.7,0.8c0.1,0.3,0.2,0.4,0.3,0.5l0.3,0.1
		c0-0.3,0.1-0.4,0.3-0.4s0.3,0.1,0.3,0.3c0.1,0.2-0.1,0.3-0.3,0.4c-0.2,0.1-0.4,0.1-0.7-0.1c-0.2-0.2-0.4-0.4-0.4-0.7
		c-0.1-0.6,0.2-1,0.8-1.1c0.2-0.1,0.4-0.1,0.6,0.1c-0.2-0.2-0.5-0.3-1-0.2C42.2,9.8,42,9.9,42,9.9c-0.1,0.1-0.2,0.1-0.2,0.2
		s-0.1,0.1-0.1,0.2c0,0.1-0.1,0.1-0.1,0.1c-0.1,0.1-0.2,0-0.2-0.1c0-0.1,0-0.1,0-0.2c0.2-0.3,0.5-0.4,1-0.5c-0.6,0.1-1.3-0.3-1.9-1
		c-0.1-0.1-0.1-0.7,0-1.6c0-0.7-0.1-1-0.4-1.1c-0.3,0-0.4,0.1-0.4,0.4c0,0.2,0.1,0.2,0.3,0.1c0,0.2-0.1,0.3-0.3,0.3
		s-0.3-0.1-0.3-0.4c-0.1-0.3,0.2-0.6,0.6-0.7c-0.5,0.1-0.8,0.2-1,0.3c-0.2,0.1-0.5,0-0.8-0.3c-0.3-0.2-0.5-0.3-0.7-0.2
		c0.1-0.1,0.1-0.2,0.2-0.2c0.2,0,0.3,0.1,0.6,0.2C38.3,5,38.5,4.9,38.8,5c-0.2,0-0.3,0.2-0.2,0.4c0.1,0.1,0.2,0.2,0.4,0.1
		c0.4-0.2,0.6-0.2,0.8-0.2c0.3,0,0.6,0.1,0.7,0.3c0.2,0.2,0.3,0.4,0.2,0.8c0,0.3-0.1,0.5-0.1,0.7c0,0.2,0,0.3-0.1,0.3
		c0.2-0.7,0.3-1.1,0.4-1.2c0.2,0,0.2,0.1,0.1,0.4c-0.2,0.3-0.3,0.5-0.3,0.7C41,7.1,41.3,7,41.4,7c0.6,0,0.9,0.2,1,0.8
		c0,0.4-0.1,0.6-0.4,0.6c-0.2,0-0.3-0.1-0.3-0.3V8c0.1,0.1,0.1,0.1,0.1,0.1c0.1,0.1,0.2,0.1,0.2,0C42,8.1,42,8,42,7.9
		c0-0.2-0.1-0.3-0.2-0.4c-0.2-0.1-0.3-0.2-0.6-0.2c-0.6,0.1-0.8,0.4-0.7,1c0.1,0.4,0.3,0.6,0.7,0.7c0.4,0.1,0.8,0.2,1.3,0.3
		c0.7,0.2,1.1,0.6,1.3,1.1C44.3,10.8,44.4,11.4,44.6,12.2z M43.5,13.7c0,0,0-0.1-0.1-0.2c-0.3-0.2-0.7-0.4-1-0.4
		c-0.4,0-0.7,0.1-1.1,0.3l-0.4,0.4c-0.2,0.2-0.4,0.2-0.7,0.2c-0.3-0.1-0.5-0.2-0.4-0.4c0-0.1,0.1-0.2,0.2-0.2c0.1-0.1,0.2-0.1,0.3,0
		v0.1c0.1,0.2,0.2,0.2,0.3,0.1c0.2-0.1,0.1-0.2-0.1-0.3s-0.4-0.1-0.6-0.1c-0.2,0.1-0.3,0.3-0.3,0.4c0,0.4,0.3,0.6,0.8,0.6
		c0.2,0,0.3-0.1,0.4-0.1c0.3-0.2,0.4-0.3,0.6-0.4c0.1,0.3,0.2,0.4,0.2,0.5c0.2,0.2,0.4,0.2,0.7,0.2c0.4-0.1,0.6-0.2,0.6-0.5
		c-0.1-0.1-0.1-0.2-0.2-0.2c-0.1-0.1-0.2-0.1-0.2,0c-0.1,0.1-0.1,0.1-0.1,0.2s0.1,0.1,0.1,0.1c0.1,0.1,0.1,0.1,0.1,0.1
		c-0.1,0.2-0.3,0.2-0.5,0.1c-0.3-0.1-0.4-0.2-0.4-0.4c0-0.3,0.2-0.5,0.7-0.5c0,0,0.1-0.1,0.1-0.1c0.2,0,0.6,0.2,1,0.4
		C43.4,13.7,43.5,13.7,43.5,13.7z M41.6,22.4c0.1,0.2,0,0.3-0.2,0.4c0.1-0.1,0.1-0.2,0.1-0.3c0-0.2-0.1-0.4-0.4-0.6
		c0.1,0.1,0.2,0.2,0.2,0.2C41.4,22.2,41.5,22.3,41.6,22.4z M41.6,22.4c-0.1-0.2-0.2-0.4-0.4-0.4c0.2,0.2,0.4,0.4,0.4,0.6
		c0,0.1-0.1,0.2-0.2,0.3C41.5,22.7,41.6,22.6,41.6,22.4z M49.2,15.1c0.1-0.1,0.1-0.2,0.1-0.3c0-0.2-0.3-0.5-0.9-0.8
		c0.4,0.2,0.6,0.4,0.6,0.7c0,0.1-0.1,0.2-0.1,0.3c-0.3,0.4-0.7,0.6-1.3,0.6s-1.1-0.2-1.7-0.7c0.6,0.4,1.1,0.6,1.6,0.6
		s0.9-0.2,1.2-0.6c0.1-0.1,0.1-0.2,0.1-0.2c0-0.3-0.3-0.5-1-0.6c0.6,0.1,0.8,0.3,0.8,0.6c0,0.1-0.1,0.2-0.1,0.2
		c-0.2,0.3-0.5,0.4-1,0.4c-0.6,0-1.2-0.2-1.8-0.7c0.7,0.4,1.2,0.6,1.7,0.6c0.4,0,0.7-0.1,0.9-0.4c0.1-0.3-0.2-0.6-0.9-0.6
		c0.6,0.2,0.8,0.3,0.7,0.6c-0.1,0.2-0.3,0.3-0.7,0.3c-0.5,0-1.1-0.2-1.7-0.7c0.7,0.4,1.2,0.6,1.6,0.6c0.3,0,0.5-0.1,0.6-0.2
		c0.1-0.2-0.2-0.3-0.8-0.4c0.4,0.1,0.6,0.3,0.6,0.4c-0.2,0.2-0.6,0.2-1.1-0.1c-0.3-0.2-0.4-0.4-0.4-0.6c0-0.2,0.1-0.3,0.2-0.4
		c0.1-0.1,0.1-0.2-0.1-0.2c-0.4-0.1-0.7-0.1-1,0.1c-0.2,0.2-0.3,0.4-0.3,0.6c-0.2-0.1-0.3-0.2-0.3-0.2s-0.2,0-0.3,0
		c-0.1,0-0.3,0-0.5,0.1c-0.3,0-0.6-0.1-0.8-0.2c-0.1-0.1-0.2-0.1-0.2,0.1c-0.1,0.1-0.1,0.2-0.1,0.3c0,0.2,0.1,0.3,0.2,0.4
		c0.1,0,0.1,0.1,0.2,0.1c0.1,0.1,0.2,0.1,0.3,0.2c-0.8,0.2-1.3,0.5-1.4,0.8c-0.1,0.5,0.1,0.7,0.7,0.7c0.2,0,0.3-0.1,0.4-0.2
		c0.1-0.2-0.1-0.3-0.3-0.3h-0.2c0,0-0.1-0.1-0.1-0.2c0-0.2,0.3-0.4,1-0.5c0.2,0,0.4,0,0.6,0c0.2,0,0.4,0.1,0.7,0.2
		c0.2,0.1,0.4,0.1,0.7,0.2c0.2,0.1,0.4,0.1,0.6,0.2c-0.5-0.2-0.8-0.4-0.8-0.4c-0.7-0.4-1.1-0.6-1.5-0.6c-0.3,0-0.6-0.1-0.7-0.4
		c0.3,0.2,0.6,0.2,0.7,0.2c0.4-0.1,0.8,0.1,1.2,0.5c0.7,0.6,1.4,0.9,2.1,0.9C48.2,15.7,48.7,15.5,49.2,15.1z M44.5,25
		c0-0.6-0.1-0.8-0.4-0.8c-0.3-0.1-0.5,0.2-0.4,0.7c0.1,0.6,0.2,1,0.4,1.3C44.3,25.8,44.5,25.4,44.5,25z M50.9,25.3
		c0-0.3-0.2-0.7-0.5-1c-0.2-0.1-0.2-0.2-0.2-0.1s0,0.1,0.1,0.2c0.3,0.3,0.4,0.7,0.4,0.9c0,1.7-1.2,2.6-3.4,2.6
		c-1.2,0-2.2-0.3-2.8-0.8c0,0.1-0.1,0.1-0.2,0.2c0.7,0.6,1.7,1,3,1c1.5-0.1,2.5-0.4,3.1-1.3C50.7,26.3,50.9,25.8,50.9,25.3z
		 M49.9,19.5c0.1,0.2,0.2,0.4,0.2,0.6c0,0.3-0.1,0.6-0.4,0.7C49.5,21,49.4,21,49.1,21c-0.8,0-1.3-0.5-1.5-1.6c0.3,1,0.8,1.5,1.5,1.5
		c0.2,0,0.4-0.1,0.6-0.2c0.2-0.1,0.3-0.3,0.3-0.5s-0.1-0.5-0.4-0.8c0.2,0.3,0.2,0.6,0.2,0.7c0,0.2-0.1,0.4-0.2,0.5s-0.3,0.2-0.4,0.2
		c-0.7,0-1.1-0.6-1.4-1.6c0.4,1,0.8,1.5,1.3,1.5c0.1,0,0.2-0.1,0.3-0.1c0.1-0.1,0.2-0.2,0.2-0.3c0-0.2-0.1-0.4-0.3-0.7
		c0.2,0.2,0.2,0.4,0.2,0.6c0,0.2-0.1,0.2-0.1,0.3s-0.2,0.1-0.2,0.1c-0.5,0-1-0.5-1.2-1.6c0.3,1,0.7,1.4,1.2,1.4
		c0.2,0,0.3-0.1,0.3-0.2c0-0.2-0.2-0.4-0.4-0.6c0.2,0.3,0.3,0.6,0.2,0.7c0,0-0.1,0.1-0.1,0.1c-0.2,0-0.3-0.1-0.5-0.3
		c-0.2-0.2-0.3-0.4-0.3-0.6c0-0.3,0.2-0.4,0.4-0.6c0.1-0.1,0.2-0.1,0.1-0.2c-0.3-0.2-0.5-0.4-0.7-0.3c-0.3,0.2-0.5,0.3-0.6,0.4
		c0.1-0.1,0-0.2-0.1-0.4c-0.1-0.1-0.2-0.2-0.6-0.3c-0.2-0.1-0.4-0.3-0.4-0.5c-0.1-0.2-0.2-0.2-0.3,0.2c-0.1,0.2-0.1,0.5,0.2,1
		c-0.7-0.2-1.2-0.1-1.4,0.1c-0.3,0.4-0.3,0.7,0.1,1c0.1,0.1,0.2,0.1,0.4-0.1c0.1-0.2,0.1-0.3-0.1-0.5c-0.1,0-0.1-0.1-0.1-0.1
		c0.1-0.4,0.4-0.5,1-0.2c0.3,0.2,0.6,0.4,0.9,0.7c0.1,0.2,0.2,0.3,0.3,0.4c0.1,0.2,0.2,0.3,0.3,0.4c-0.1-0.2-0.2-0.4-0.2-0.6
		c-0.1-0.1-0.1-0.2-0.1-0.3c-0.3-0.7-0.5-1.1-0.7-1.2c-0.2-0.1-0.3-0.3-0.3-0.6c0.2,0.3,0.3,0.5,0.4,0.5c0.3,0.1,0.5,0.4,0.7,1
		c0.3,1.3,1,2,1.8,2c0.3,0,0.5-0.1,0.8-0.2c0.2-0.1,0.3-0.3,0.3-0.6C50.2,20.1,50.1,19.8,49.9,19.5z M49.6,14.8
		c-0.1-0.4-0.3-0.7-0.8-0.7c0.4,0.2,0.6,0.4,0.6,0.7c0,0.2-0.1,0.4-0.4,0.6c0.2-0.1,0.4-0.2,0.5-0.3S49.6,14.9,49.6,14.8z M50.4,20
		c0.1,0.2,0.1,0.3,0.1,0.4c0,0.2-0.1,0.4-0.2,0.7c-0.3,0.2-0.6,0.3-1,0.3c-0.1,0-0.1,0-0.2,0c-0.1,0-0.1,0-0.2-0.1
		C50,21.3,50.5,20.9,50.4,20z M50.7,20.3c0.1,0.2,0.1,0.3,0.1,0.4c0,0.2-0.1,0.4-0.2,0.6c-0.3,0.2-0.6,0.3-0.8,0.3
		c-0.1,0-0.2,0-0.4-0.1C50.3,21.5,50.8,21.1,50.7,20.3z M50,14.8c0-0.3-0.2-0.6-0.5-0.7c0.2,0.3,0.4,0.5,0.4,0.7
		c0,0.2-0.1,0.3-0.3,0.4C49.8,15.1,50,14.9,50,14.8z M50.9,20.7c0.1,0.7-0.3,1-1.2,1.1c0.1,0.1,0.2,0.1,0.3,0.1
		c0.2,0,0.5-0.1,0.7-0.3c0.1-0.2,0.2-0.3,0.2-0.5S50.9,20.8,50.9,20.7z M51.2,20.9c0.1,0.6-0.3,1-1.1,1c0.1,0.1,0.2,0.1,0.3,0.1
		c0.2,0,0.4-0.1,0.7-0.3C51.3,21.5,51.3,21.3,51.2,20.9z M55.2,5.3c0-0.2,0-0.3-0.1-0.4s-0.2-0.2-0.4-0.2c-0.1,0-0.2,0.1-0.2,0.2
		c-0.1,0.2,0.1,0.3,0.2,0.3h0.1c0,0,0.1,0.1,0.1,0.2c0,0.2-0.2,0.4-0.7,0.5c-0.3,0.1-0.6,0.1-1-0.1c-0.3-0.1-0.7-0.2-1-0.3
		c0.2,0.1,0.3,0.2,0.4,0.3c0.1,0.1,0.2,0.1,0.2,0.2c0.5,0.3,0.9,0.5,1.1,0.5c0.2,0,0.4,0.1,0.5,0.3c-0.2-0.2-0.4-0.2-0.5-0.2
		c-0.3,0-0.6-0.1-1-0.4c-0.5-0.5-1-0.7-1.5-0.7c-0.5,0-0.9,0.2-1.2,0.7c-0.1,0.1-0.1,0.2-0.1,0.3c0,0.3,0.2,0.6,0.6,0.7
		c-0.4-0.2-0.6-0.5-0.4-1c0.2-0.4,0.5-0.6,1-0.6c0.4,0,0.8,0.2,1.2,0.6c-0.4-0.3-0.8-0.5-1.2-0.5c-0.4,0-0.7,0.2-0.9,0.6
		c-0.1,0.1-0.1,0.2-0.1,0.2c0,0.3,0.2,0.6,0.7,0.7c-0.6-0.2-0.7-0.5-0.6-1c0.2-0.3,0.4-0.4,0.7-0.4c0.4,0,0.8,0.2,1.3,0.7
		c-0.5-0.3-0.9-0.5-1.2-0.5c-0.3,0-0.5,0.1-0.7,0.4C50.9,6.7,51,6.9,51.6,7c-0.4-0.2-0.6-0.4-0.5-0.7c0.1-0.2,0.2-0.3,0.5-0.3
		c0.3,0,0.7,0.2,1.2,0.7c-0.5-0.5-0.9-0.7-1.2-0.7c-0.2,0-0.4,0.1-0.4,0.2c0,0.1,0.2,0.2,0.6,0.4c-0.3-0.1-0.5-0.2-0.4-0.3
		c0.1-0.3,0.3-0.3,0.8-0.1c0.2,0.1,0.3,0.3,0.3,0.5c0,0.1-0.1,0.3-0.1,0.4c-0.1,0.1-0.1,0.1,0.1,0.2c0.3,0.1,0.5,0,0.7-0.1
		c0.2-0.3,0.2-0.5,0.2-0.7c0.1,0.1,0.2,0.2,0.3,0.2c0.1,0,0.2,0,0.6-0.1c0.2-0.1,0.4,0,0.6,0.1c0.1,0.1,0.1,0,0.1-0.1
		c0.1-0.1,0.1-0.2,0.1-0.2c-0.1-0.2-0.1-0.3-0.2-0.4c-0.1-0.1-0.2-0.1-0.4-0.2C54.8,5.8,55.2,5.5,55.2,5.3z M51.5,21.2
		c0.1,0.6-0.2,0.8-1,0.9c0.1,0.1,0.2,0.1,0.3,0.1c0.2,0,0.4-0.1,0.6-0.3C51.5,21.7,51.6,21.4,51.5,21.2z M51.8,21.4
		c0.1,0.6-0.2,0.9-1,0.9c0.1,0.1,0.2,0.1,0.3,0.1c0.2,0,0.4-0.1,0.6-0.3C51.9,21.9,51.9,21.7,51.8,21.4z M52.1,21.7
		c0.1,0.5-0.2,0.8-0.8,0.8c0.1,0.1,0.2,0.1,0.2,0.1c0.2,0,0.4-0.1,0.6-0.2C52.2,22.2,52.2,21.9,52.1,21.7z M52.4,21.9
		c0.1,0.4-0.2,0.7-0.8,0.7c0.2,0.1,0.4,0.1,0.7-0.2C52.5,22.3,52.6,22.2,52.4,21.9z"/>
</g>
</svg>
